<?xml version="1.0" encoding="UTF-8" standalone="no"?>
<!-- Created with Inkscape (http://www.inkscape.org/) -->

<svg
   xmlns:dc="http://purl.org/dc/elements/1.1/"
   xmlns:cc="http://creativecommons.org/ns#"
   xmlns:rdf="http://www.w3.org/1999/02/22-rdf-syntax-ns#"
   xmlns:svg="http://www.w3.org/2000/svg"
   xmlns="http://www.w3.org/2000/svg"
   xmlns:xlink="http://www.w3.org/1999/xlink"
   xmlns:sodipodi="http://sodipodi.sourceforge.net/DTD/sodipodi-0.dtd"
   xmlns:inkscape="http://www.inkscape.org/namespaces/inkscape"
   width="1920mm"
   height="1080mm"
   viewBox="0 0 1920 1080"
   version="1.1"
   id="svg8"
   sodipodi:docname="add_book.svg"
   inkscape:version="0.92.4 (5da689c313, 2019-01-14)">
  <defs
     id="defs2">
    <inkscape:perspective
       sodipodi:type="inkscape:persp3d"
       inkscape:vp_x="570.88769 : 319.76991 : 1"
       inkscape:vp_y="0 : 1000 : 0"
       inkscape:vp_z="2490.8877 : 319.76991 : 1"
       inkscape:persp3d-origin="1530.8877 : 139.76991 : 1"
       id="perspective1412" />
    <linearGradient
       id="a">
      <stop
         id="stop1616"
         offset="0"
         stop-color="#e7b380" />
      <stop
         id="stop1618"
         offset="1"
         stop-color="#eecaa6" />
    </linearGradient>
    <linearGradient
       gradientUnits="userSpaceOnUse"
       y2="661.83"
       y1="663.15"
       x2="267.96"
       x1="270.77"
       id="d"
       gradientTransform="matrix(0.80039315,0,0,0.86014077,55.517833,76.789419)">
      <stop
         id="stop1621"
         offset="0"
         stop-color="#e5af79" />
      <stop
         id="stop1623"
         offset="1"
         stop-opacity="0"
         stop-color="#e5af79" />
    </linearGradient>
    <linearGradient
       id="b">
      <stop
         id="stop1626"
         offset="0"
         stop-color="#babdb6" />
      <stop
         id="stop1628"
         offset="1"
         stop-color="#eeeeec" />
    </linearGradient>
    <linearGradient
       gradientUnits="userSpaceOnUse"
       y2="1096.9"
       y1="1030.9"
       x2="480"
       x1="427"
       id="e">
      <stop
         id="stop1631"
         offset="0"
         stop-color="#729fcf" />
      <stop
         id="stop1633"
         offset="1"
         stop-color="#3465a4" />
    </linearGradient>
    <linearGradient
       xlink:href="#a"
       gradientUnits="userSpaceOnUse"
       x2="447.57"
       x1="438.8"
       id="c"
       gradientTransform="matrix(0.80039315,0,0,0.86014077,55.517833,76.789419)" />
    <linearGradient
       xlink:href="#b"
       gradientUnits="userSpaceOnUse"
       y2="990.8"
       y1="1026.6"
       x2="469.2"
       x1="500.62"
       id="h" />
    <linearGradient
       xlink:href="#b"
       gradientUnits="userSpaceOnUse"
       y2="988.91"
       y1="1035.6"
       x2="453.84"
       x1="480.5"
       id="g" />
    <linearGradient
       xlink:href="#b"
       gradientUnits="userSpaceOnUse"
       y2="994.17"
       y1="1062.4"
       x2="432.16"
       x1="482.12"
       id="f" />
    <linearGradient
       xlink:href="#a"
       gradientUnits="userSpaceOnUse"
       y2="482.97"
       y1="492.2"
       x2="353.32"
       x1="319.24"
       id="i"
       gradientTransform="matrix(0.80039315,0,0,0.86014077,55.517833,76.789419)" />
    <linearGradient
       xlink:href="#a"
       gradientUnits="userSpaceOnUse"
       gradientTransform="matrix(-0.80039315,0,0,0.86014077,790.5669,-263.98975)"
       y2="876.67"
       y1="894.48"
       x2="627"
       x1="596.51"
       id="j" />
    <linearGradient
       xlink:href="#a"
       gradientUnits="userSpaceOnUse"
       y2="391.96"
       y1="350.95"
       x2="316.91"
       x1="318.68"
       id="k"
       gradientTransform="matrix(0.80039315,0,0,0.86014077,55.517833,76.789419)" />
  </defs>
  <sodipodi:namedview
     id="base"
     pagecolor="#ffffff"
     bordercolor="#666666"
     borderopacity="1.0"
     inkscape:pageopacity="0.0"
     inkscape:pageshadow="2"
     inkscape:zoom="0.061871845"
     inkscape:cx="5915.3003"
     inkscape:cy="1405.1521"
     inkscape:document-units="mm"
     inkscape:current-layer="layer1"
     showgrid="false"
     inkscape:window-width="1920"
     inkscape:window-height="1017"
     inkscape:window-x="-8"
     inkscape:window-y="-8"
     inkscape:window-maximized="1" />
  <metadata
     id="metadata5">
    <rdf:RDF>
      <cc:Work
         rdf:about="">
        <dc:format>image/svg+xml</dc:format>
        <dc:type
           rdf:resource="http://purl.org/dc/dcmitype/StillImage" />
        <dc:title />
      </cc:Work>
    </rdf:RDF>
  </metadata>
  <g
     inkscape:label="Layer 1"
     inkscape:groupmode="layer"
     id="layer1"
     transform="translate(0,783)">
    <path
       inkscape:connector-curvature="0"
       id="path1817"
       d="m 1574.4961,-201.51882 115.7727,-655.8075 343.7159,63.43728 343.7161,63.43728 -115.7727,655.807503 -115.7726,655.807507 -343.7162,-63.43729 -343.7159,-63.43726 z"
       style="opacity:1;fill:#3676e8;fill-opacity:1;stroke:#f8f8f8;stroke-width:0.04854006;stroke-linecap:square;stroke-miterlimit:4;stroke-dasharray:0, 0.53394061999999998;stroke-dashoffset:0.17640001;stroke-opacity:1" />
    <g
       id="g1741"
       transform="matrix(2.0630692,0,0,1.8911075,983.93747,-1009.6108)">
      <path
         id="path1645"
         d="m 315.46954,244.38785 c -3.79723,-0.10526 -14.19978,1.64846 -19.45916,5.53715 -55.45684,43.46034 -34.71546,75.04041 -37.36876,144.12519 l 16.35844,-10.69843 c 0,0 18.16812,11.34182 0.15007,45.07654 l 49.94934,-1.55901 3.25159,-3.78995 c -0.75346,-0.82954 -1.43054,-1.74686 -1.97601,-2.76862 -4.33309,-8.11629 0.97872,-22.03165 -4.20206,-25.2933 0.0667,-0.0403 0.13251,-0.0965 0.2001,-0.1344 6.70633,-3.77593 16.63777,1.83348 22.56148,12.92878 2.62273,4.91261 4.02502,10.10235 4.25209,14.7841 6.77901,1.23525 13.52184,2.79425 16.35843,4.51574 6.61173,4.01256 24.08703,4.99957 24.08703,4.99957 0,0 19.92019,-37.9821 3.60177,-54.9415 7.89876,-7.04068 15.19867,17.66558 16.40806,12.12283 -0.85754,-26.60932 -33.29315,-43.14638 -38.54373,-82.62684 -4.79876,-36.08033 -24.10704,-60.67261 -58.47832,-60.15653 5.03151,-1.32393 5.12972,-2.06029 2.8514,-2.12352 z"
         inkscape:connector-curvature="0"
         style="fill:#2e3436;stroke:none;stroke-width:0.82972932" />
      <path
         id="path1647"
         d="m 291.34569,376.22162 h 35.65591 c 0,0 -0.56597,21.89575 3.39575,50.48167 l -44.14489,0.6082 c 12.45092,-17.63804 5.09371,-51.08978 5.09371,-51.08978 z"
         inkscape:connector-curvature="0"
         style="fill:url(#k);stroke-width:0.82972932" />
      <g
         id="g1707"
         transform="matrix(0.79734366,0.07502148,-0.06981029,0.85686364,-119.88031,-310.22232)">
        <path
           id="path1649"
           d="m 559.18,695.47 c 1.6699,12.732 -0.36054,20.312 -5.152,20.94 -2.026,0.26575 -5.3819,6.9148 -7.2641,4.0159 -2.5691,-3.957 -0.97146,-14.082 -1.9353,-21.43 -1.67,-12.732 -7.1395,-25.062 -2.348,-25.69 4.7915,-0.628 15.029,9.433 16.699,22.165 z"
           inkscape:connector-curvature="0"
           style="fill:#e8b686" />
        <path
           id="path1651"
           d="m 642.13,694.97 c -1.6699,12.732 0.36054,20.312 5.152,20.94 2.026,0.26575 5.3819,6.9148 7.2641,4.0159 2.5691,-3.957 0.97146,-14.082 1.9353,-21.43 1.67,-12.732 7.1395,-25.062 2.348,-25.69 -4.7915,-0.628 -15.029,9.433 -16.699,22.165 z"
           inkscape:connector-curvature="0"
           style="fill:#e8b686" />
        <path
           id="path1653"
           d="m 600.4,619.31 c -25.236,2.1029 -45.66,23.31 -51.604,47.258 -2.2427,9.2532 -1.7064,18.869 -1.6632,28.294 2.0938,22.924 14.178,45.175 33.066,58.46 6.2702,4.1144 13.422,7.715 20.932,8.3106 20.908,-4.1914 36.795,-21.377 45.42,-40.172 5.2738,-11.385 7.9914,-24.026 7.1551,-36.575 1.4961,-26.467 -15.072,-53.363 -40.055,-62.612 -4.2649,-1.557 -8.7311,-2.5573 -13.252,-2.9653 z"
           inkscape:connector-curvature="0"
           style="fill:#eecaa6" />
        <path
           id="path1655"
           d="m 584.75,666.86 5.75,5.25 -1.25,14 -8,-12 c 0,0 6.25,-4.75 3.5,-7.25 z"
           inkscape:connector-curvature="0"
           style="fill:#e8b888" />
        <g
           id="g1673"
           transform="translate(-13.25,-4.25)">
          <path
             id="path1657"
             d="m 589.5,676.87 c -7.2245,-2.1867 -14.752,0.45031 -19.139,6.0591 0.70971,6.9124 5.4464,13.043 12.513,15.182 7.2345,2.1898 14.763,-0.46429 19.148,-6.089 -0.001,-0.01 0.0103,-0.0201 0.009,-0.0299 -0.73409,-6.8844 -5.488,-12.991 -12.531,-15.123 z"
             inkscape:connector-curvature="0"
             style="opacity:0.85338003;fill:#fffef9" />
          <path
             id="path1659"
             d="m 584.06,676.09 c -5.3705,0.082 -10.429,2.6372 -13.719,6.8438 0.57664,5.6164 3.8291,10.7 8.8125,13.562 6.2386,-0.0681 11.281,-5.1515 11.281,-11.406 0,-3.6074 -1.6975,-6.7857 -4.3125,-8.875 -0.68411,-0.0692 -1.3854,-0.13534 -2.0625,-0.125 z"
             inkscape:connector-curvature="0"
             style="opacity:0.85338003;fill:#729fcf" />
          <path
             id="path1661"
             d="m 576.29,653.55 c 0,4.1005 -3.3241,7.4246 -7.4246,7.4246 -4.1005,0 -7.4246,-3.3241 -7.4246,-7.4246 0,-4.1005 3.3241,-7.4246 7.4246,-7.4246 4.1005,0 7.4246,3.3241 7.4246,7.4246 z"
             transform="matrix(0.66667,0,0,0.66667,200.58,249.49)"
             inkscape:connector-curvature="0"
             style="fill:#204a87" />
          <path
             id="path1663"
             d="m 576.29,653.55 c 0,4.1005 -3.3241,7.4246 -7.4246,7.4246 -4.1005,0 -7.4246,-3.3241 -7.4246,-7.4246 0,-4.1005 3.3241,-7.4246 7.4246,-7.4246 4.1005,0 7.4246,3.3241 7.4246,7.4246 z"
             transform="matrix(0.28571,0,0,0.28571,420.12,495.64)"
             inkscape:connector-curvature="0"
             style="fill:#fdf6ed" />
          <path
             id="path1665"
             d="m 576.29,653.55 c 0,4.1005 -3.3241,7.4246 -7.4246,7.4246 -4.1005,0 -7.4246,-3.3241 -7.4246,-7.4246 0,-4.1005 3.3241,-7.4246 7.4246,-7.4246 4.1005,0 7.4246,3.3241 7.4246,7.4246 z"
             transform="matrix(0.16667,0,0,0.16667,482.36,581.04)"
             inkscape:connector-curvature="0"
             style="fill:#fdf6ed" />
          <path
             id="path1667"
             d="m 590.62,682.36 -5.125,2.125 6,0.375 z"
             inkscape:connector-curvature="0"
             style="fill:#fdf6ed" />
          <path
             id="path1669"
             d="m 584.0625,676.34375 c -5.37051,0.082 -10.42863,2.63715 -13.71875,6.84375 0.0294,0.28685 0.0505,0.5599 0.0937,0.84375 4.28809,-3.74715 10.49291,-5.98563 17.0625,-6.0625 h 0.1875 c -0.47219,-0.54767 -0.99641,-1.0477 -1.5625,-1.5 -0.68411,-0.0692 -1.38545,-0.13534 -2.0625,-0.125 z"
             inkscape:connector-curvature="0"
             style="opacity:0.85338003;fill:#729fcf" />
          <path
             id="path1671"
             d="m 583.09,675.26 c -3.673,0.0561 -7.2075,1.2489 -10.156,3.3125 -1.9051,-0.23435 -3.8734,-0.8191 -4.5625,-2.375 0.50021,1.3102 1.4528,2.4004 2.6875,3.0625 -2.5997,-0.31236 -5.3091,-1.1257 -6.25,-3.25 0.78704,2.0616 2.4263,3.7161 4.5,4.5312 -3.1744,-0.46392 -6.3222,-1.5363 -7.4688,-4.125 1.376,3.6044 4.7066,6.2728 8.7812,6.5938 0.0127,-0.18223 0.0565,-0.35936 0.0937,-0.53125 4.4657,-4.9613 11.533,-7.2177 18.344,-5.1562 6.6032,1.9987 11.191,7.4925 12.344,13.844 -0.88227,-6.8921 -5.7003,-12.982 -12.781,-15.125 -1.8489,-0.55963 -3.6987,-0.80925 -5.5312,-0.78125 z"
             inkscape:connector-curvature="0"
             style="fill:#2e3436" />
        </g>
        <path
           id="path1675"
           d="m 633,671.86 c 0,0 5.25,-7 3.5,-9.25 -1.75,-2.25 11.75,-2.5 11.75,-2.5 0,0 0.75,17.25 -3.75,18.5 -4.5,1.25 -11.25,-6.25 -11.5,-6.75 z"
           inkscape:connector-curvature="0"
           style="fill:#e8b888" />
        <path
           id="path1677"
           d="m 624.86,672.39 c 7.2245,-2.1867 14.752,0.45031 19.139,6.0591 -0.70971,6.9124 -5.4464,13.043 -12.513,15.182 -7.2345,2.1898 -14.763,-0.46429 -19.148,-6.089 0.001,-0.01 -0.0103,-0.0201 -0.009,-0.0299 0.73409,-6.8844 5.488,-12.991 12.531,-15.123 z"
           inkscape:connector-curvature="0"
           style="opacity:0.85338003;fill:#fffef9" />
        <path
           id="path1679"
           d="m 626.33,694.49 c -5.3705,-0.082 -10.429,-2.6372 -13.719,-6.8438 0.57664,-5.6164 3.8291,-10.7 8.8125,-13.562 6.2386,0.0681 11.281,5.1515 11.281,11.406 0,3.6074 -1.6975,6.7857 -4.3125,8.875 -0.68411,0.0692 -1.3854,0.13534 -2.0625,0.125 z"
           inkscape:connector-curvature="0"
           style="opacity:0.85338003;fill:#729fcf" />
        <path
           id="path1681"
           d="m 576.29,653.55 c 0,4.1005 -3.3241,7.4246 -7.4246,7.4246 -4.1005,0 -7.4246,-3.3241 -7.4246,-7.4246 0,-4.1005 3.3241,-7.4246 7.4246,-7.4246 4.1005,0 7.4246,3.3241 7.4246,7.4246 z"
           transform="matrix(-0.66667,0,0,0.66667,999.46,248.37)"
           inkscape:connector-curvature="0"
           style="fill:#204a87" />
        <path
           id="path1683"
           d="m 576.29,653.55 c 0,4.1005 -3.3241,7.4246 -7.4246,7.4246 -4.1005,0 -7.4246,-3.3241 -7.4246,-7.4246 0,-4.1005 3.3241,-7.4246 7.4246,-7.4246 4.1005,0 7.4246,3.3241 7.4246,7.4246 z"
           transform="matrix(-0.28571,0,0,0.28571,785.4,493.81)"
           inkscape:connector-curvature="0"
           style="fill:#fdf6ed" />
        <path
           id="path1685"
           d="m 576.29,653.55 c 0,4.1005 -3.3241,7.4246 -7.4246,7.4246 -4.1005,0 -7.4246,-3.3241 -7.4246,-7.4246 0,-4.1005 3.3241,-7.4246 7.4246,-7.4246 4.1005,0 7.4246,3.3241 7.4246,7.4246 z"
           transform="matrix(-0.16667,0,0,0.16667,713.61,578.33)"
           inkscape:connector-curvature="0"
           style="fill:#fdf6ed" />
        <path
           id="path1687"
           d="m 631.52,678.23 -5.125,2.125 6,0.375 z"
           inkscape:connector-curvature="0"
           style="fill:#fdf6ed" />
        <path
           id="path1689"
           d="m 557.98,660.96 c -0.7888,-0.15227 -2.5059,0.74923 -0.74839,0.57186 9.5353,0.66197 27.381,1.7901 31.633,11.305 0.8546,0.80633 2.6678,0.51795 1.75,-0.92368 -4.4348,-10.198 -23.07,-10.757 -32.635,-10.953 z"
           inkscape:connector-curvature="0"
           style="opacity:0.85338003;fill:#2e3436" />
        <path
           id="path1691"
           d="m 631.27,670.77 c 3.673,0.0561 7.2075,1.2489 10.156,3.3125 1.9051,-0.23435 3.8734,-0.8191 4.5625,-2.375 -0.50021,1.3102 -1.4528,2.4004 -2.6875,3.0625 2.5997,-0.31236 5.3091,-1.1257 6.25,-3.25 -0.78704,2.0616 -2.4263,3.7161 -4.5,4.5312 3.1744,-0.46392 6.3222,-1.5363 7.4688,-4.125 -1.376,3.6044 -4.7066,6.2728 -8.7812,6.5938 -0.0127,-0.18223 -0.0565,-0.35936 -0.0937,-0.53125 -4.4657,-4.9613 -11.533,-7.2177 -18.344,-5.1562 -6.6032,1.9987 -11.191,7.4925 -12.344,13.844 0.88227,-6.8921 5.7003,-12.982 12.781,-15.125 1.8489,-0.55963 3.6987,-0.80925 5.5312,-0.78125 z"
           inkscape:connector-curvature="0"
           style="fill:#2e3436" />
        <path
           id="path1693"
           d="m 646.73,660.02 c 0.7888,-0.15227 2.5059,0.74923 0.74839,0.57186 -9.5353,0.66197 -27.381,1.7901 -31.633,11.305 -0.8546,0.80633 -2.6678,0.51795 -1.75,-0.92368 4.4348,-10.198 23.07,-10.757 32.635,-10.953 z"
           inkscape:connector-curvature="0"
           style="opacity:0.85338003;fill:#2e3436" />
        <path
           id="path1695"
           d="m 589.75,714.06 5.1562,3.25 c 3.3024,0.5568 6.1579,0.59609 9.0938,0.21875 l 6.25,-3.4688 c -7.2717,1.9445 -12.138,2.2981 -20.5,0 z"
           inkscape:connector-curvature="0"
           style="opacity:0.33459;fill:#2e3436" />
        <path
           id="path1697"
           d="m 585.26,730.61 12.152,0.60095 c 1.431,2.6912 3.7458,0.96303 4.2929,0.38388 l 10.326,-0.0455 -8.1036,3.5607 -8.3436,0.26517 -10.323,-4.7652 z"
           inkscape:connector-curvature="0"
           style="fill:#ef6f66" />
        <path
           id="path1699"
           d="m 586.82,731.77 8.5,3.375 5.75,-0.25 9.9357,-3.0732 c -9.1721,11.824 -16.366,12.653 -24.186,-0.0518 z"
           inkscape:connector-curvature="0"
           style="fill:#f28881" />
        <path
           id="path1701"
           d="m 582.5,728.11 c 0,0 13.75,15.75 34,0.75"
           inkscape:connector-curvature="0"
           style="fill:none;stroke:#a40000" />
        <path
           id="path1703"
           d="M 594.75,737.36218 H 602 a 0.5,0.5 0 0 1 0.5,0.5 0.5,0.5 0 0 1 -0.5,0.5 h -7.25 a 0.5,0.5 0 0 1 -0.5,-0.5 0.5,0.5 0 0 1 0.5,-0.5"
           inkscape:connector-curvature="0"
           style="opacity:0.33459;fill:#ffffff" />
        <path
           id="path1705"
           d="m 590.12,732.74 5.625,-0.125 2,2.25 -7.625,-1.125 z"
           inkscape:connector-curvature="0"
           style="opacity:0.33459;fill:#a40000" />
      </g>
      <path
         id="path1709"
         d="m 319.8717,258.06409 c -19.65606,-2.01213 -37.2583,9.43058 -45.92896,28.19799 -5.96781,18.43282 7.336,-5.30819 19.7497,-0.57105 -1.49057,3.79658 0.66074,5.32634 -7.80896,8.06107 9.39262,4.44831 17.07639,-2.11526 25.55816,-8.23739 0.0259,1.25055 -1.0129,3.96757 2.60792,6.87501 9.28136,-32.53138 16.65698,-0.97815 14.71122,4.71736 7.93806,-10.29502 9.19012,1.27533 11.26234,8.40168 7.2626,-5.22372 1.9552,-12.43333 7.97856,-7.72389 1.14656,1.44779 4.34717,-0.12037 3.10488,-2.75598 -3.36581,-11.42525 -8.16241,-23.14724 -16.63937,-31.14741 -4.30164,-3.23284 -9.39822,-5.15164 -14.59517,-5.81774 z"
         inkscape:connector-curvature="0"
         style="fill:#2e3436;stroke-width:0.82972932" />
      <path
         id="path1711"
         d="m 267.87816,419.90817 c 7.90004,-0.46993 26.65629,-7.86289 38.69421,-6.81394 18.48668,1.61087 20.08746,0.77312 41.22985,4.07655 14.4671,2.26036 17.63826,1.63693 23.78768,3.33622 5.57914,1.54164 8.27367,2.59694 10.52837,9.46413 4.60987,14.03664 29.85707,70.06191 45.74567,105.53928 7.51914,16.78822 -54.32428,77.20021 -54.32428,77.20021 l -10.40671,-6.28926 c 12.40609,-8.17134 44.85883,-68.63838 44.85883,-68.63838 -25.61258,-36.12591 -40.24537,-77.017 -40.24537,-77.017 0,0 -13.58347,116.17061 -25.46851,124.68601 -11.88503,8.51539 -29.99633,-15.81369 -31.12809,-35.2761 -1.13175,-19.4624 -37.91942,29.80216 -46.40919,-3.04102 -5.90106,-22.82986 -7.70027,-53.30035 -8.24885,-69.75828"
         inkscape:connector-curvature="0"
         style="fill:#eecaa6;stroke-width:0.82972932" />
      <path
         id="path1713"
         d="m 304.32806,474.75935 c 0,0 16.40806,18.9231 4.40216,25.37415 -12.00589,6.45106 -20.00982,5.16085 -20.00982,5.16085 z"
         inkscape:connector-curvature="0"
         style="fill:url(#j);stroke-width:0.82972932" />
      <path
         id="path1715"
         d="m 326.97118,473.03907 c 0,0 -20.43723,13.66162 -10.41551,23.25821 10.02172,9.59659 18.06167,10.59693 18.06167,10.59693 l -7.64624,-33.85514 z"
         inkscape:connector-curvature="0"
         style="fill:url(#i);stroke-width:0.82972932" />
      <path
         id="path1717"
         d="m 253.19094,471.10375 c 0,0 11.88504,-52.91414 9.05565,-52.30602 -2.82939,0.60812 9.62153,-0.60821 9.62153,-0.60821 l -0.56596,58.38807 40.74962,15.81369 41.31549,-26.15344 -10.75328,-49.80559 8.48977,0.54075 -1.57485,3.69689 19.11979,46.17666 c 0,0 -21.68425,112.4548 -4.58458,155.1952 -21.5922,11.44159 -96.94361,13.46636 -109.95801,-9.83571 19.50078,-21.64373 -0.34819,-141.1061 -0.91413,-141.1061 z"
         inkscape:connector-curvature="0"
         style="fill:#2e3436;stroke-width:0.82972932" />
      <g
         id="g1729"
         transform="matrix(0.80039315,0,0,0.86014077,-83.238317,-289.06286)">
        <path
           id="path1719"
           d="m 424,953.86 86.619,40 -29.619,100.5 -69.299,-51.5 z"
           inkscape:connector-curvature="0"
           style="fill:#3465a4" />
        <path
           id="path1721"
           d="m 413.5,959.36 86.619,40 -20.119,94.5 -78.799,-45.5 z"
           inkscape:connector-curvature="0"
           style="fill:url(#h);stroke:#888a85" />
        <path
           id="path1723"
           d="m 404.5,961.36 86.619,40 -11.119,93.5 -87.799,-44.5 z"
           inkscape:connector-curvature="0"
           style="fill:url(#g);stroke:#888a85" />
        <path
           id="path1725"
           d="m 395,964.86 86.619,40 -1.6188,92 -97.299,-43 12.299,-89 z"
           inkscape:connector-curvature="0"
           style="fill:url(#f);stroke:#888a85" />
        <path
           id="path1727"
           d="m 374,964.86 92.982,40 13.018,92 -99.14,-42.5 -6.8596,-89.5 z"
           inkscape:connector-curvature="0"
           style="fill:url(#e)" />
      </g>
      <path
         id="path1731"
         d="m 256.25645,465.62466 -33.73417,79.18112 c 0,0 20.13309,66.23084 30.60303,78.69944 0,0 -23.209,-7.98134 -20.37881,-9.19749 0,0 -21.92197,-45.14621 -36.32904,-70.95043 12.00589,-12.04197 37.76655,-108.7476 37.76655,-108.7476 0,0 -3.63211,-12.28883 29.69618,-14.27145"
         inkscape:connector-curvature="0"
         style="fill:#eecaa6;stroke-width:0.82972932" />
      <path
         id="path1733"
         d="m 264.10831,623.11643 13.91563,14.05384 0.83825,4.32419 -16.0951,-9.72905 7.54458,8.10768 10.56279,5.76561 -6.03568,6.66635 -16.26239,-1.62162 -13.91564,-11.71082 -12.74225,-26.30482 32.19021,10.44985 z"
         inkscape:connector-curvature="0"
         style="fill:#eecaa6;stroke-width:0.82972932" />
      <path
         id="path1735"
         d="m 270.68754,639.99239 c -0.29275,0.26759 -7.28198,6.69663 -11.41041,10.6064 l 15.41157,1.52881 6.01648,-6.6568 -10.01772,-5.47823 z"
         inkscape:connector-curvature="0"
         style="fill:url(#d);stroke-width:0.82972932" />
      <path
         id="path1737"
         d="m 354.73682,611.36691 c 0,0 -16.82026,5.11018 -17.32531,11.44331 0.26236,2.66532 1.82162,2.90461 3.15475,1.95278 12.17959,-8.69516 8.96441,-2.63797 8.96441,-2.63797 l -7.42189,12.22174 -9.42863,13.38982 c 0.50513,3.61878 3.70422,1.80939 3.70422,1.80939 l 13.6387,-17.18992 -11.28074,22.61827 c 1.01025,2.5332 4.04102,0.72372 4.04102,0.72372 l 12.96477,-23.34164 -6.90339,21.35127 c 1.17866,2.17134 4.04102,-1.08558 4.04102,-1.08558 l 8.92359,-20.26578 -3.3675,16.46568 c 0.6735,1.6285 2.52564,-0.7239 2.52564,-0.7239 l 5.21961,-15.19954 6.81471,-13.09049 2.15209,-8.35489 -9.30377,-7.32453 -11.11266,7.23783 z"
         inkscape:connector-curvature="0"
         style="fill:#eecaa6;stroke-width:0.82972932" />
      <path
         id="path1739"
         d="m 407.86692,537.04215 c 0,0 3.96179,-5.778 5.65966,-4.25753 1.69787,1.52047 -6.79158,-0.91226 -6.79158,-0.91226 z"
         inkscape:connector-curvature="0"
         style="fill:url(#c);stroke-width:0.82972932" />
    </g>
  </g>
</svg>
