<?xml version="1.0" encoding="UTF-8" standalone="no"?>
<svg
   xmlns:dc="http://purl.org/dc/elements/1.1/"
   xmlns:cc="http://creativecommons.org/ns#"
   xmlns:rdf="http://www.w3.org/1999/02/22-rdf-syntax-ns#"
   xmlns:svg="http://www.w3.org/2000/svg"
   xmlns="http://www.w3.org/2000/svg"
   xmlns:sodipodi="http://sodipodi.sourceforge.net/DTD/sodipodi-0.dtd"
   xmlns:inkscape="http://www.inkscape.org/namespaces/inkscape"
   height="512px"
   viewBox="0 0 512 512"
   width="512px"
   class=""
   version="1.1"
   id="svg12"
   sodipodi:docname="add-book.svg"
   inkscape:version="0.92.4 (5da689c313, 2019-01-14)">
  <metadata
     id="metadata18">
    <rdf:RDF>
      <cc:Work
         rdf:about="">
        <dc:format>image/svg+xml</dc:format>
        <dc:type
           rdf:resource="http://purl.org/dc/dcmitype/StillImage" />
      </cc:Work>
    </rdf:RDF>
  </metadata>
  <defs
     id="defs16" />
  <sodipodi:namedview
     pagecolor="#ffffff"
     bordercolor="#666666"
     borderopacity="1"
     objecttolerance="10"
     gridtolerance="10"
     guidetolerance="10"
     inkscape:pageopacity="0"
     inkscape:pageshadow="2"
     inkscape:window-width="1920"
     inkscape:window-height="1017"
     id="namedview14"
     showgrid="false"
     inkscape:zoom="0.4609375"
     inkscape:cx="256"
     inkscape:cy="256"
     inkscape:window-x="-8"
     inkscape:window-y="-8"
     inkscape:window-maximized="1"
     inkscape:current-layer="svg12" />
  <g
     id="g10">
    <path
       d="m256 0c-141.164062 0-256 114.835938-256 256s114.835938 256 256 256 256-114.835938 256-256-114.835938-256-256-256zm0 0"
       fill="#2196f3"
       data-original="#2196F3"
       class="active-path"
       style="fill:#FFFFFF"
       data-old_color="#2196f3"
       id="path2" />
    <path
       d="m256 512c-141.164062 0-256-114.835938-256-256s114.835938-256 256-256 256 114.835938 256 256-114.835938 256-256 256zm0-480c-123.519531 0-224 100.480469-224 224s100.480469 224 224 224 224-100.480469 224-224-100.480469-224-224-224zm0 0"
       data-original="#000000"
       class=""
       style="fill:#7575C9"
       data-old_color="#000000"
       id="path4" />
    <path
       d="m368 272h-224c-8.832031 0-16-7.167969-16-16s7.167969-16 16-16h224c8.832031 0 16 7.167969 16 16s-7.167969 16-16 16zm0 0"
       data-original="#000000"
       class=""
       style="fill:#7575C9"
       data-old_color="#000000"
       id="path6" />
    <path
       d="m256 384c-8.832031 0-16-7.167969-16-16v-224c0-8.832031 7.167969-16 16-16s16 7.167969 16 16v224c0 8.832031-7.167969 16-16 16zm0 0"
       data-original="#000000"
       class=""
       style="fill:#7575C9"
       data-old_color="#000000"
       id="path8" />
  </g>
  <path
     style="opacity:0.85;fill:#6495ed;fill-opacity:1;stroke:none;stroke-width:2.18132854;stroke-miterlimit:4;stroke-dasharray:0, 23.99461313;stroke-dashoffset:0"
     d="M 216.51525,507.96483 C 137.90755,495.02093 69.643429,446.53542 31.195186,376.33877 5.7172189,329.8225 -4.5093865,265.47803 4.9521981,211.22129 19.219905,129.4042 76.669145,56.597521 153.82698,22.54902 210.40602,-2.4183963 278.28775,-5.5010028 336.70235,14.244388 463.18147,56.997044 536.0043,190.34554 503.00318,318.76376 c -11.53666,44.89287 -31.65349,80.2017 -65.19979,114.4379 -38.25985,39.04666 -78.30292,61.35172 -130.47754,72.67946 -22.14671,4.80831 -67.88998,5.85793 -90.8106,2.08371 z m 92.20339,-33.41796 C 438.69321,442.22516 512.14894,305.8921 467.25944,180.29683 440.25385,104.73849 375.45802,49.895066 295.32507,34.770977 267.81138,29.57811 224.94104,31.503826 197.10352,39.183048 128.49178,58.110184 70.769111,110.59732 46.083176,176.50563 c -10.314993,27.53972 -13.979077,48.31574 -13.946201,79.07748 0.06901,64.56407 23.472141,119.47075 69.683365,163.48585 31.89113,30.37555 77.33647,52.86678 120.11864,59.44756 20.36485,3.13255 66.75283,1.01057 86.77966,-3.96965 z"
     id="path828"
     inkscape:connector-curvature="0" />
  <path
     style="opacity:0.85;fill:#6495ed;fill-opacity:1;stroke:none;stroke-width:2.18132854;stroke-miterlimit:4;stroke-dasharray:0, 23.99461313;stroke-dashoffset:0"
     d="m 245.70478,377.80708 -5.32512,-5.32511 v -51.08166 -51.08167 h -51.73155 c -47.36145,0 -52.03487,-0.33515 -55.32204,-3.96743 -5.03845,-5.56743 -4.55159,-16.18431 0.97162,-21.18785 4.16493,-3.77306 8.98108,-4.18977 55.32203,-4.78668 l 50.75994,-0.65382 v -49.49428 c 0,-46.78699 0.24595,-49.80695 4.49645,-55.21058 5.50131,-6.99379 15.2947,-7.62007 21.53745,-1.37732 4.0928,4.0928 4.33898,7.23164 4.33898,55.32203 v 50.98305 h 46.37288 c 25.50509,0 49.48986,0.6234 53.29949,1.38532 8.23495,1.647 14.15745,9.5809 12.31479,16.49718 -3.08877,11.59338 -1.86323,11.33041 -58.20995,12.49038 l -52.69246,1.08475 -0.58346,50.88695 c -0.55849,48.70983 -0.78351,51.09991 -5.25952,55.86442 -6.06106,6.45168 -13.61969,6.32218 -20.28953,-0.34768 z"
     id="path830"
     inkscape:connector-curvature="0" />
</svg>
