<?xml version="1.0" encoding="UTF-8" standalone="no"?>
<svg
   xmlns:dc="http://purl.org/dc/elements/1.1/"
   xmlns:cc="http://creativecommons.org/ns#"
   xmlns:rdf="http://www.w3.org/1999/02/22-rdf-syntax-ns#"
   xmlns:svg="http://www.w3.org/2000/svg"
   xmlns="http://www.w3.org/2000/svg"
   xmlns:sodipodi="http://sodipodi.sourceforge.net/DTD/sodipodi-0.dtd"
   xmlns:inkscape="http://www.inkscape.org/namespaces/inkscape"
   height="512px"
   viewBox="0 0 512 512"
   width="512px"
   class=""
   version="1.1"
   id="svg8"
   sodipodi:docname="add-book-active.svg"
   inkscape:version="0.92.4 (5da689c313, 2019-01-14)">
  <metadata
     id="metadata14">
    <rdf:RDF>
      <cc:Work
         rdf:about="">
        <dc:format>image/svg+xml</dc:format>
        <dc:type
           rdf:resource="http://purl.org/dc/dcmitype/StillImage" />
      </cc:Work>
    </rdf:RDF>
  </metadata>
  <defs
     id="defs12" />
  <sodipodi:namedview
     pagecolor="#ffffff"
     bordercolor="#666666"
     borderopacity="1"
     objecttolerance="10"
     gridtolerance="10"
     guidetolerance="10"
     inkscape:pageopacity="0"
     inkscape:pageshadow="2"
     inkscape:window-width="1920"
     inkscape:window-height="1017"
     id="namedview10"
     showgrid="false"
     inkscape:zoom="0.4609375"
     inkscape:cx="256"
     inkscape:cy="256"
     inkscape:window-x="-8"
     inkscape:window-y="-8"
     inkscape:window-maximized="1"
     inkscape:current-layer="svg8" />
  <g
     id="g6">
    <path
       d="m256 0c-141.164062 0-256 114.835938-256 256s114.835938 256 256 256 256-114.835938 256-256-114.835938-256-256-256zm0 0"
       fill="#2196f3"
       data-original="#2196F3"
       class="active-path"
       style="fill:#7575C9"
       data-old_color="#2196f3"
       id="path2" />
    <path
       d="m368 277.332031h-90.667969v90.667969c0 11.777344-9.554687 21.332031-21.332031 21.332031s-21.332031-9.554687-21.332031-21.332031v-90.667969h-90.667969c-11.777344 0-21.332031-9.554687-21.332031-21.332031s9.554687-21.332031 21.332031-21.332031h90.667969v-90.667969c0-11.777344 9.554687-21.332031 21.332031-21.332031s21.332031 9.554687 21.332031 21.332031v90.667969h90.667969c11.777344 0 21.332031 9.554687 21.332031 21.332031s-9.554687 21.332031-21.332031 21.332031zm0 0"
       fill="#fafafa"
       data-original="#FAFAFA"
       class=""
       style="fill:#FFFFFF"
       data-old_color="#fafafa"
       id="path4" />
  </g>
  <path
     style="opacity:0.85;fill:#6495ed;fill-opacity:1;stroke:none;stroke-width:2.18132854;stroke-miterlimit:4;stroke-dasharray:0, 23.99461313;stroke-dashoffset:0"
     d="M 216.51525,507.96483 C 158.39884,498.39512 100.62002,466.24564 63.519618,422.83451 36.623842,391.3638 19.783854,359.22775 8.6927887,318.2075 3.635515,299.50321 3.0641707,293.44519 2.9486353,257.30169 2.8107368,214.16219 4.6380635,202.04974 16.098933,170.13488 39.514494,104.93002 90.184374,50.63347 153.82698,22.54902 210.40602,-2.4183963 278.28775,-5.5010028 336.70235,14.244388 463.24224,57.017591 536.02015,190.28382 503.00318,318.76376 c -11.53666,44.89287 -31.65349,80.2017 -65.19979,114.4379 -38.25985,39.04666 -78.30292,61.35172 -130.47754,72.67946 -22.14671,4.80831 -67.88998,5.85793 -90.8106,2.08371 z m 54.40417,-124.66575 6.3416,-6.34157 v -48.98046 -48.98044 h 45.629 c 49.02094,0 56.82467,-1.3611 63.64679,-11.10101 5.56006,-7.93812 4.47646,-18.1522 -2.78893,-26.28848 l -6.32667,-7.08509 -50.08011,-0.65575 -50.08008,-0.65575 V 184.34347 135.4764 l -6.3416,-6.34159 c -8.3202,-8.3202 -20.94215,-8.78889 -29.87642,-1.10941 l -6.08707,5.23218 -0.65575,50.08986 -0.65575,50.08985 -47.07306,0.009 c -42.58284,0.007 -47.7243,0.40519 -53.90025,4.17106 -14.91912,9.09713 -13.54254,31.56766 2.34044,38.20399 5.85631,2.44636 18.07791,3.17559 53.23062,3.17559 h 45.62901 v 46.7518 c 0,57.99418 1.99024,63.66408 22.40416,63.82629 6.33644,0.0503 9.80419,-1.43572 14.64407,-6.27562 z"
     id="path4524"
     inkscape:connector-curvature="0" />
</svg>
