<?xml version="1.0" encoding="UTF-8" standalone="no"?>
<svg
   xmlns:dc="http://purl.org/dc/elements/1.1/"
   xmlns:cc="http://creativecommons.org/ns#"
   xmlns:rdf="http://www.w3.org/1999/02/22-rdf-syntax-ns#"
   xmlns:svg="http://www.w3.org/2000/svg"
   xmlns="http://www.w3.org/2000/svg"
   xmlns:sodipodi="http://sodipodi.sourceforge.net/DTD/sodipodi-0.dtd"
   xmlns:inkscape="http://www.inkscape.org/namespaces/inkscape"
   version="1.1"
   id="Capa_1"
   x="0px"
   y="0px"
   viewBox="0 0 31.5875 31.5875"
   xml:space="preserve"
   width="40"
   height="40"
   class=""
   sodipodi:docname="add.svg"
   inkscape:version="0.92.4 (5da689c313, 2019-01-14)"><metadata
   id="metadata27"><rdf:RDF><cc:Work
       rdf:about=""><dc:format>image/svg+xml</dc:format><dc:type
         rdf:resource="http://purl.org/dc/dcmitype/StillImage" /><dc:title></dc:title></cc:Work></rdf:RDF></metadata><defs
   id="defs25">
	
	
	
	
	
</defs><sodipodi:namedview
   pagecolor="#ffffff"
   bordercolor="#666666"
   borderopacity="1"
   objecttolerance="10"
   gridtolerance="10"
   guidetolerance="10"
   inkscape:pageopacity="0"
   inkscape:pageshadow="2"
   inkscape:window-width="1920"
   inkscape:window-height="1017"
   id="namedview23"
   showgrid="false"
   inkscape:zoom="10.429825"
   inkscape:cx="56.701387"
   inkscape:cy="4.4160392"
   inkscape:window-x="-8"
   inkscape:window-y="-8"
   inkscape:window-maximized="1"
   inkscape:current-layer="Capa_1" /><path
   style="fill:#996402;stroke-width:0.06590192;fill-opacity:1"
   d="m 15.362467,7.1342059 h 6.234321 c 1.873197,0.0058 3.390654,1.5220707 3.397903,3.3952671 v 13.950118 c -0.0058,1.874185 -1.523718,3.392104 -3.397903,3.397903 H 10.678158 C 9.9275354,27.876044 9.3193925,27.267901 9.3179426,26.517279 V 12.522347 c 0.1318039,0 0.2636077,0.01318 0.3980476,0.01318 3.0241078,1.32e-4 5.5124978,-2.380179 5.6464768,-5.4013211 z"
   data-original="#047BAF"
   class="active-path"
   data-old_color="#047BAF"
   id="path4"
   inkscape:connector-curvature="0" /><path
   style="fill:#ffffff;stroke-width:0.06590192"
   d="m 15.362467,7.1342059 h 6.234321 c 0.791746,0.00191 1.557724,0.2817966 2.164219,0.790823 0.170489,0.4048355 0.260049,0.839195 0.263608,1.2784972 V 23.145736 c -0.0058,1.874185 -1.523718,3.392104 -3.397903,3.397903 H 9.6949016 c -0.1275202,3.3e-4 -0.2544473,-0.0174 -0.376959,-0.05272 V 12.519711 c 0.1318039,0 0.2636077,0.01318 0.3980476,0.01318 3.0231188,1.98e-4 5.5111138,-2.378598 5.6464768,-5.3986851 z"
   data-original="#FFFFFF"
   class=""
   id="path6"
   inkscape:connector-curvature="0" /><path
   style="fill:#ffa500;stroke-width:0.06590192;fill-opacity:1"
   d="m 15.362467,7.1342059 h 6.468932 c 0.654999,0.00145 1.185971,0.5313012 1.188871,1.1862345 V 22.7266 c 0.06063,1.731903 -0.790823,2.559631 -2.396194,2.612352 H 10.506813 c -0.6559875,0.0015 -1.1874205,0.532883 -1.1888704,1.188871 V 12.522347 c 0.1318039,0 0.2636077,0.01318 0.3980476,0.01318 3.0241078,1.32e-4 5.5124978,-2.380179 5.6464768,-5.4013211 z"
   data-original="#1FC3F3"
   class=""
   data-old_color="#1FC3F3"
   id="path8"
   inkscape:connector-curvature="0" /><path
   style="fill:#dc143c;stroke-width:0.06590192;fill-opacity:1"
   d="m 12.924096,11.536454 h 6.521654 c 0.375641,0 0.680107,0.304467 0.680107,0.680108 v 0.917355 c 0,0.375641 -0.304466,0.680107 -0.680107,0.680107 h -6.550651 c -0.375641,0 -0.680108,-0.304466 -0.680108,-0.680107 v 0 -0.917355 c -3.29e-4,-0.103268 0.02313,-0.205153 0.06854,-0.297877 0.221694,-0.113153 0.435678,-0.240871 0.640567,-0.382231 z"
   data-original="#FFFFFF"
   class=""
   id="path10"
   inkscape:connector-curvature="0" /><path
   style="fill:#dc143c;stroke-width:0.06590192;fill-opacity:1"
   d="m 18.857905,7.1342059 h 2.488456 V 9.9917131 L 20.102133,8.5629595 18.857905,9.9917131 Z"
   data-original="#047BAF"
   class="active-path"
   data-old_color="#047BAF"
   id="path12"
   inkscape:connector-curvature="0" /><circle
   id="circle2"
   data-old_color="#047BAF"
   class="active-path"
   data-original="#047BAF"
   r="5.6517487"
   cy="7.0352073"
   cx="9.7159901"
   style="fill:#66cd00;stroke-width:0.06590192;fill-opacity:1" /><circle
   id="circle16"
   class=""
   data-original="#FFFFFF"
   r="4.4338813"
   cy="7.0352073"
   cx="9.7159901"
   style="fill:#ffffff;stroke-width:0.06590192" /><path
   inkscape:connector-curvature="0"
   id="path18"
   data-old_color="#047BAF"
   class="active-path"
   data-original="#047BAF"
   d="m 7.9735434,7.3383561 c -0.1696315,0 -0.3071029,-0.1374714 -0.3071029,-0.307103 0,-0.1696315 0.1374714,-0.3071029 0.3071029,-0.3071029 H 9.4102053 V 5.2901244 c 0,-0.1696315 0.1374712,-0.3071029 0.3071032,-0.3071029 0.169631,0 0.3071025,0.1374714 0.3071025,0.3071029 v 1.4366619 h 1.436662 c 0.169631,0 0.307102,0.1374714 0.307102,0.3071029 0,0.1696316 -0.137471,0.307103 -0.307102,0.307103 v 0 H 10.021775 V 8.777654 c 0,0.1696316 -0.1374715,0.307103 -0.3071025,0.307103 -0.169632,0 -0.3071033,-0.1374714 -0.3071033,-0.307103 v 0 -1.4366618 z"
   style="fill:#66cd00;stroke-width:0.06590192;fill-opacity:1" /> </svg>