<?xml version="1.0"?>
<svg xmlns="http://www.w3.org/2000/svg" xmlns:xlink="http://www.w3.org/1999/xlink" version="1.1" id="Layer_1" x="0px" y="0px" viewBox="0 0 496.2 496.2" style="enable-background:new 0 0 496.2 496.2;" xml:space="preserve" width="512px" height="512px" class=""><g><path style="fill:#EBE3CB" d="M0,248.1C0,111.1,111.1,0,248.1,0s248.1,111.1,248.1,248.1S385.1,496.2,248.1,496.2S0,385.1,0,248.1z  " data-original="#EBE3CB" class=""/><path style="fill:#FFA500" d="M211.1,361.3c0.1,6.1,16.6,14.7,37,14.7s36.9-5.2,37-13l0,0l0.2-231.2l-74.1-1.4L211.1,361.3z" data-original="#0E5066" class="" data-old_color="#0E5066"/><path style="fill:#FFA500" d="M211.1,129.4c0-7.7,16.6-13.9,37-13.9c20.5,0,37,6.2,37,13.9s-16.6,13.9-37,13.9  C227.7,143.4,211.1,137.1,211.1,129.4z" data-original="#14708F" class="" data-old_color="#14708F"/><path style="fill:#66CD00" d="M375.9,182.4l-74.1-1.4l-0.3,178.8l-0.3-0.5v0.1v3.5h0.5c0.1,7.9,16.6,13.9,37,13.9s36.9-6,37-13.9  l0,0L375.9,182.4z" data-original="#F26101" class="" data-old_color="#F26101"/><path style="fill:#66CD00" d="M301.7,180.1c0-7.7,16.6-13.9,37-13.9c20.5,0,37,6.2,37,13.9s-16.6,13.9-37,13.9  C318.3,194.1,301.7,187.8,301.7,180.1z" data-original="#F28238" class="" data-old_color="#F28238"/><path style="fill:#DC143C" d="M116.3,361.3c0.1,6.1,17,13.1,37.4,13.1s37.4-6.3,37.4-14.2V360l-0.2-179.1l-74.5-0.6L116.3,361.3z" data-original="#2BAA9C" class="" data-old_color="#2BAA9C"/><path style="fill:#DC143C" d="M116.3,180.1c0-7.7,16.6-13.9,37-13.9c20.5,0,37,6.2,37,13.9s-16.6,13.9-37,13.9  C132.9,194.1,116.3,187.8,116.3,180.1z" data-original="#32C7B7" class="active-path" data-old_color="#32C7B7"/></g> </svg>
