<?xml version="1.0"?>
<svg xmlns="http://www.w3.org/2000/svg" xmlns:xlink="http://www.w3.org/1999/xlink" version="1.1" id="Capa_1" x="0px" y="0px" viewBox="0 0 512 512" style="enable-background:new 0 0 512 512;" xml:space="preserve" width="512px" height="512px" class=""><g><path id="SVGCleanerId_0" style="fill:#4D86EB" d="M256,502c135.492,0,246-110.508,246-246S391.492,10,256,10S10,120.508,10,256  S120.508,502,256,502z" data-original="#4AD194" class="" data-old_color="#4AD194"/><path id="SVGCleanerId_1" style="fill:#F8F8FF" d="M256,462c113.461,0,206-92.539,206-206S369.461,50,256,50S50,142.539,50,256  S142.54,462,256,462z" data-original="#A6F076" class="" data-old_color="#A6F076"/><g>
	<path id="SVGCleanerId_0_1_" style="fill:#4D86EB" d="M256,502c135.492,0,246-110.508,246-246S391.492,10,256,10   S10,120.508,10,256S120.508,502,256,502z" data-original="#4AD194" class="" data-old_color="#4AD194"/>
</g><g>
	<path id="SVGCleanerId_1_1_" style="fill:#F8F8FF" d="M256,462c113.461,0,206-92.539,206-206S369.461,50,256,50S50,142.539,50,256   S142.54,462,256,462z" data-original="#A6F076" class="" data-old_color="#A6F076"/>
</g><g>
	<path style="fill:#4D86EB" d="M130.168,162.851h251.663c13.584,0,24.698,13.661,24.698,30.358v125.583   c0,16.696-11.114,30.358-24.698,30.358H130.168c-13.584,0-24.698-13.661-24.698-30.358V193.209   C105.47,176.512,116.585,162.851,130.168,162.851z" data-original="#FFD278" class="active-path" data-old_color="#FFD278"/>
	<path style="fill:#4D86EB" d="M406.53,256v62.791c0,16.697-11.114,30.358-24.698,30.358H130.169   c-13.586,0-24.699-13.661-24.699-30.358V256H406.53z" data-original="#3C5485" class="" data-old_color="#3C5485"/>
	<path style="fill:#E5E5E5;" d="M254.089,323.087c34.292,0,62.261-27.969,62.261-62.261s-27.969-62.261-62.261-62.261   s-62.261,27.969-62.261,62.261S219.797,323.087,254.089,323.087z" data-original="#E5E5E5" class=""/>
	<path style="fill:#4D86EB" d="M381.832,162.851h-57.24v-15.92c0-8.757,7.164-15.921,15.92-15.921h25.4   c8.756,0,15.92,7.164,15.92,15.921L381.832,162.851L381.832,162.851z" data-original="#3C5485" class="" data-old_color="#3C5485"/>
</g><path d="M256,0C114.841,0,0,114.841,0,256s114.841,256,256,256s256-114.841,256-256S397.159,0,256,0z M256,492  C125.87,492,20,386.131,20,256S125.87,20,256,20c130.131,0,236,105.869,236,236S386.131,492,256,492z" data-original="#000000" class="" style="fill:#000000"/><path d="M440.015,142.896C409.802,93.745,362.256,59.3,306.136,45.909c-56.121-13.393-114.096-4.128-163.248,26.086  S59.291,149.755,45.9,205.874c-13.392,56.12-4.127,114.097,26.086,163.249c30.213,49.151,77.759,83.596,133.879,96.987  c16.476,3.932,33.273,5.877,50.035,5.877c32.926-0.001,65.702-7.508,95.549-22.211c4.955-2.44,6.992-8.435,4.552-13.39  s-8.436-6.992-13.39-4.552c-40.871,20.134-87.786,25.397-132.104,14.822C105.384,421.571,40.269,315.64,65.354,210.517  c12.151-50.924,43.406-94.067,88.007-121.483s97.211-35.821,148.132-23.671c105.123,25.084,170.238,131.017,145.154,236.14  c-8.39,35.16-26.314,67.277-51.836,92.881c-3.899,3.911-3.889,10.243,0.023,14.142c3.911,3.9,10.242,3.89,14.142-0.022  c28.125-28.216,47.879-63.61,57.125-102.357C479.493,250.025,470.228,192.049,440.015,142.896z" data-original="#000000" class="" style="fill:#000000"/><path d="M366.015,418.223l-0.404,0.273c-4.563,3.112-5.737,9.334-2.625,13.896c1.937,2.838,5.075,4.365,8.27,4.365  c1.941,0,3.903-0.564,5.627-1.74l0.227-0.153c4.596-3.063,5.837-9.272,2.773-13.867C376.82,416.401,370.611,415.159,366.015,418.223  z" data-original="#000000" class="" style="fill:#000000"/><path d="M416.53,318.792V193.209c0-18.211-10.426-33.637-24.698-38.643v-7.636c0-14.293-11.627-25.921-25.92-25.921h-25.4  c-14.293,0-25.92,11.628-25.92,25.921v15.92c0,5.522,4.477,10,10,10h57.24c7.967,0,14.698,9.323,14.698,20.358V246h-71.715  c-6.859-32.756-35.961-57.434-70.725-57.434S190.224,213.245,183.365,246H115.47v-52.791c0-11.035,6.731-20.358,14.698-20.358l0,0  h127.948l0,0c5.523,0,10-4.478,10-10s-4.477-10-10-10l0,0l0,0H130.168c-19.133,0-34.698,18.104-34.698,40.358v125.583  c0,22.253,15.565,40.358,34.698,40.358h251.663C400.964,359.15,416.53,341.045,416.53,318.792z M340.511,141.01h25.4  c3.209,0,5.92,2.712,5.92,5.921v5.92h-37.24v-5.92C334.591,143.722,337.302,141.01,340.511,141.01z M254.089,208.566  c28.817,0,52.261,23.444,52.261,52.261s-23.444,52.261-52.261,52.261s-52.261-23.444-52.261-52.261S225.272,208.566,254.089,208.566  z M381.832,339.15H130.168c-7.967,0-14.698-9.322-14.698-20.358V266h66.564c2.664,37.437,33.952,67.087,72.055,67.087  s69.391-29.65,72.055-67.087h70.385v52.792C396.53,329.827,389.799,339.15,381.832,339.15z" data-original="#000000" class="" style="fill:#000000"/><path d="M179.109,306.9h-0.511c-5.523,0-10,4.478-10,10c0,5.523,4.477,10,10,10h0.511c5.523,0,10-4.477,10-10  C189.109,311.378,184.632,306.9,179.109,306.9z" data-original="#000000" class="" style="fill:#000000"/><path d="M371.169,213.333c5.523,0,10-4.478,10-10c0-5.523-4.477-10-10-10h-44.506c-5.523,0-10,4.477-10,10c0,5.522,4.477,10,10,10  H371.169z" data-original="#000000" class="" style="fill:#000000"/><path d="M287.676,172.851c5.523,0,10-4.478,10-10s-4.477-10-10-10h-0.475c-5.523,0-10,4.478-10,10s4.477,10,10,10H287.676z" data-original="#000000" class="" style="fill:#000000"/></g> </svg>
