<?xml version="1.0" encoding="UTF-8" standalone="no"?>
<svg
   xmlns:dc="http://purl.org/dc/elements/1.1/"
   xmlns:cc="http://creativecommons.org/ns#"
   xmlns:rdf="http://www.w3.org/1999/02/22-rdf-syntax-ns#"
   xmlns:svg="http://www.w3.org/2000/svg"
   xmlns="http://www.w3.org/2000/svg"
   xmlns:sodipodi="http://sodipodi.sourceforge.net/DTD/sodipodi-0.dtd"
   xmlns:inkscape="http://www.inkscape.org/namespaces/inkscape"
   version="1.1"
   id="Capa_1"
   x="0px"
   y="0px"
   viewBox="0 0 512.001 512.001"
   style="enable-background:new 0 0 512.001 512.001;"
   xml:space="preserve"
   width="512px"
   height="512px"
   class=""
   sodipodi:docname="features.svg"
   inkscape:version="0.92.4 (5da689c313, 2019-01-14)"><metadata
   id="metadata63"><rdf:RDF><cc:Work
       rdf:about=""><dc:format>image/svg+xml</dc:format><dc:type
         rdf:resource="http://purl.org/dc/dcmitype/StillImage" /></cc:Work></rdf:RDF></metadata><defs
   id="defs61" /><sodipodi:namedview
   pagecolor="#ffffff"
   bordercolor="#666666"
   borderopacity="1"
   objecttolerance="10"
   gridtolerance="10"
   guidetolerance="10"
   inkscape:pageopacity="0"
   inkscape:pageshadow="2"
   inkscape:window-width="1920"
   inkscape:window-height="1017"
   id="namedview59"
   showgrid="false"
   inkscape:zoom="0.4609375"
   inkscape:cx="256"
   inkscape:cy="256"
   inkscape:window-x="-8"
   inkscape:window-y="-8"
   inkscape:window-maximized="1"
   inkscape:current-layer="Capa_1" /><g
   id="g56"
   transform="matrix(1,0,0,0.80390897,0,50.199402)"><path
     style="fill:#acacff"
     d="m 390.085,132.676 h 74.897 c 12.441,0 22.527,10.085 22.527,22.526 v 215.71 c 0,12.441 -10.085,22.527 -22.527,22.527 h -74.897 c -12.441,0 -22.527,-10.085 -22.527,-22.527 V 155.203 c 0.001,-12.44 10.086,-22.527 22.527,-22.527 z"
     data-original="#D388BD"
     class=""
     data-old_color="#D388BD"
     id="path2"
     inkscape:connector-curvature="0" /><path
     style="fill:#acacff"
     d="m 386.739,370.913 v -215.71 c 0,-12.441 10.085,-22.527 22.526,-22.527 h -19.18 c -12.441,0 -22.526,10.085 -22.526,22.527 v 215.71 c 0,12.441 10.085,22.526 22.526,22.526 h 19.18 c -12.441,10e-4 -22.526,-10.084 -22.526,-22.526 z"
     data-original="#C476B2"
     class=""
     data-old_color="#C476B2"
     id="path4"
     inkscape:connector-curvature="0" /><g
     id="g12">
	<rect
   x="367.55301"
   y="164.70799"
   style="fill:#7575c9"
   width="119.954"
   height="15.673"
   data-original="#AD609F"
   class=""
   data-old_color="#AD609F"
   id="rect6" />
	<rect
   x="367.55301"
   y="345.72601"
   style="fill:#7575c9"
   width="119.954"
   height="15.673"
   data-original="#AD609F"
   class=""
   data-old_color="#AD609F"
   id="rect8" />
	<path
   style="fill:#7575c9"
   d="m 453.656,217.836 h -52.245 c -4.329,0 -7.837,-3.509 -7.837,-7.837 0,-4.328 3.508,-7.837 7.837,-7.837 h 52.245 c 4.329,0 7.837,3.509 7.837,7.837 0,4.328 -3.508,7.837 -7.837,7.837 z"
   data-original="#AD609F"
   class=""
   data-old_color="#AD609F"
   id="path10"
   inkscape:connector-curvature="0" />
</g><path
     style="fill:#acacff"
     d="m 60.21,133.681 h 41.636 c 12.441,0 22.526,10.085 22.526,22.526 v 214.707 c 0,12.441 -10.085,22.527 -22.526,22.527 H 60.21 c -12.441,0 -22.526,-10.085 -22.526,-22.527 V 156.206 c -10e-4,-12.44 10.085,-22.525 22.526,-22.525 z"
     data-original="#EF6E4B"
     class=""
     data-old_color="#EF6E4B"
     id="path14"
     inkscape:connector-curvature="0" /><path
     style="fill:#acacff"
     d="M 60.95,369.232 V 157.889 c 0,-13.371 10.839,-24.209 24.209,-24.209 H 61.892 c -13.371,0 -24.209,10.839 -24.209,24.209 v 211.342 c 0,13.371 10.839,24.208 24.209,24.208 H 85.159 C 71.789,393.44 60.95,382.601 60.95,369.232 Z"
     data-original="#DB5B3E"
     class=""
     data-old_color="#DB5B3E"
     id="path16"
     inkscape:connector-curvature="0" /><path
     style="fill:#7575c9"
     d="m 81.029,325.028 c -4.652,0 -8.422,-3.771 -8.422,-8.422 V 210.515 c 0,-4.651 3.77,-8.422 8.422,-8.422 4.652,0 8.422,3.771 8.422,8.422 v 106.09 c 0,4.651 -3.77,8.423 -8.422,8.423 z"
     data-original="#BC432F"
     class=""
     data-old_color="#BC432F"
     id="path18"
     inkscape:connector-curvature="0" /><path
     style="fill:#acacff"
     d="m 158.117,1.535 h 35.613 c 12.441,0 22.526,10.085 22.526,22.526 v 346.385 c 0,12.441 -10.085,22.527 -22.526,22.527 h -35.613 c -12.441,0 -22.527,-10.085 -22.527,-22.527 V 24.062 c 0,-12.44 10.085,-22.527 22.527,-22.527 z"
     data-original="#46BEE8"
     class=""
     data-old_color="#46BEE8"
     id="path20"
     inkscape:connector-curvature="0" /><path
     style="fill:#acacff"
     d="M 154.77,370.447 V 24.062 c 0,-12.441 10.085,-22.527 22.526,-22.527 h -19.18 c -12.441,0 -22.526,10.085 -22.526,22.527 v 346.385 c 0,12.441 10.085,22.526 22.526,22.526 h 19.18 c -12.44,10e-4 -22.526,-10.084 -22.526,-22.526 z"
     data-original="#35B2D3"
     class=""
     data-old_color="#35B2D3"
     id="path22"
     inkscape:connector-curvature="0" /><g
     id="g30">
	<path
   style="fill:#7575c9"
   d="m 189.308,53.006 h -26.77 c -4.329,0 -7.837,-3.509 -7.837,-7.837 0,-4.328 3.508,-7.837 7.837,-7.837 h 26.77 c 4.329,0 7.837,3.509 7.837,7.837 0,4.328 -3.508,7.837 -7.837,7.837 z"
   data-original="#047FA0"
   class=""
   data-old_color="#047FA0"
   id="path24"
   inkscape:connector-curvature="0" />
	<path
   style="fill:#7575c9"
   d="m 189.308,80.073 h -26.77 c -4.329,0 -7.837,-3.509 -7.837,-7.837 0,-4.328 3.508,-7.837 7.837,-7.837 h 26.77 c 4.329,0 7.837,3.509 7.837,7.837 0,4.328 -3.508,7.837 -7.837,7.837 z"
   data-original="#047FA0"
   class=""
   data-old_color="#047FA0"
   id="path26"
   inkscape:connector-curvature="0" />
	<path
   style="fill:#7575c9"
   d="m 189.308,107.139 h -26.77 c -4.329,0 -7.837,-3.509 -7.837,-7.837 0,-4.328 3.508,-7.837 7.837,-7.837 h 26.77 c 4.329,0 7.837,3.509 7.837,7.837 0,4.328 -3.508,7.837 -7.837,7.837 z"
   data-original="#047FA0"
   class=""
   data-old_color="#047FA0"
   id="path28"
   inkscape:connector-curvature="0" />
</g><path
     style="fill:#acacff"
     d="m 333.299,54.796 34.436,9.079 c 12.03,3.171 19.21,15.495 16.039,27.525 l -75.206,285.251 c -3.171,12.03 -15.495,19.21 -27.525,16.039 l -34.436,-9.079 c -12.03,-3.171 -19.21,-15.495 -16.039,-27.525 L 305.775,70.834 c 3.171,-12.029 15.495,-19.21 27.524,-16.038 z"
     data-original="#EFD873"
     class=""
     data-old_color="#EFD873"
     id="path32"
     inkscape:connector-curvature="0" /><path
     style="fill:#acacff"
     d="M 249.114,360.976 324.321,75.724 c 3.171,-12.03 15.495,-19.211 27.525,-16.039 L 333.3,54.795 c -12.03,-3.171 -24.353,4.009 -27.525,16.039 l -75.207,285.251 c -3.171,12.03 4.009,24.353 16.039,27.525 l 18.546,4.89 c -12.03,-3.171 -19.21,-15.494 -16.039,-27.524 z"
     data-original="#E0C865"
     class=""
     data-old_color="#E0C865"
     id="path34"
     inkscape:connector-curvature="0" /><g
     id="g40">
	<path
   style="fill:#7575c9"
   d="m 352.343,112.778 c -0.661,0 -1.332,-0.085 -2.003,-0.261 l -25.886,-6.824 c -4.185,-1.103 -6.683,-5.391 -5.58,-9.575 1.103,-4.185 5.384,-6.683 9.575,-5.58 l 25.886,6.824 c 4.185,1.103 6.683,5.391 5.58,9.575 -0.927,3.516 -4.1,5.841 -7.572,5.841 z"
   data-original="#CCB65C"
   class=""
   data-old_color="#CCB65C"
   id="path36"
   inkscape:connector-curvature="0" />
	<path
   style="fill:#7575c9"
   d="m 345.441,138.95 c -0.661,0 -1.333,-0.085 -2.003,-0.261 l -25.885,-6.824 c -4.185,-1.103 -6.683,-5.391 -5.58,-9.575 1.103,-4.185 5.392,-6.683 9.575,-5.58 l 25.885,6.824 c 4.185,1.103 6.683,5.391 5.58,9.575 -0.926,3.515 -4.1,5.841 -7.572,5.841 z"
   data-original="#CCB65C"
   class=""
   data-old_color="#CCB65C"
   id="path38"
   inkscape:connector-curvature="0" />
</g><g
     id="g46">
	<path
   style="fill:#7575c9"
   d="m 93.521,442.547 v 52.287 c 0,8.631 -7.001,15.632 -15.642,15.632 H 65.267 c -8.631,0 -15.632,-7.001 -15.632,-15.632 v -52.287 z"
   data-original="#BA7052"
   class=""
   data-old_color="#BA7052"
   id="path42"
   inkscape:connector-curvature="0" />
	<path
   style="fill:#7575c9"
   d="m 462.37,442.547 v 52.287 c 0,8.631 -7.001,15.632 -15.642,15.632 h -12.612 c -8.631,0 -15.632,-7.001 -15.632,-15.632 v -52.287 z"
   data-original="#BA7052"
   class=""
   data-old_color="#BA7052"
   id="path44"
   inkscape:connector-curvature="0" />
</g><g
     id="g52">
	<rect
   x="49.632999"
   y="442.54599"
   style="fill:#7575c9"
   width="43.886002"
   height="23.061001"
   data-original="#A35D45"
   class="active-path"
   data-old_color="#A35D45"
   id="rect48" />
	<rect
   x="418.48199"
   y="442.54599"
   style="fill:#7575c9"
   width="43.886002"
   height="23.061001"
   data-original="#A35D45"
   class="active-path"
   data-old_color="#A35D45"
   id="rect50" />
</g><path
     style="fill:#7575c9"
     d="M 495.678,443.073 H 16.322 C 7.308,443.073 0,435.765 0,426.75 v -18.556 c 0,-9.014 7.308,-16.322 16.322,-16.322 h 479.356 c 9.014,0 16.322,7.308 16.322,16.322 v 18.556 c 0,9.015 -7.308,16.323 -16.322,16.323 z"
     data-original="#BA7052"
     class=""
     data-old_color="#BA7052"
     id="path54"
     inkscape:connector-curvature="0" /></g> </svg>