<?xml version="1.0" encoding="UTF-8" standalone="no"?>
<svg
   xmlns:dc="http://purl.org/dc/elements/1.1/"
   xmlns:cc="http://creativecommons.org/ns#"
   xmlns:rdf="http://www.w3.org/1999/02/22-rdf-syntax-ns#"
   xmlns:svg="http://www.w3.org/2000/svg"
   xmlns="http://www.w3.org/2000/svg"
   xmlns:sodipodi="http://sodipodi.sourceforge.net/DTD/sodipodi-0.dtd"
   xmlns:inkscape="http://www.inkscape.org/namespaces/inkscape"
   version="1.1"
   id="Layer_1"
   x="0px"
   y="0px"
   viewBox="0 0 48.45293 48.45293"
   xml:space="preserve"
   width="50"
   height="50"
   class=""
   sodipodi:docname="home-active.svg"
   inkscape:version="0.92.4 (5da689c313, 2019-01-14)"><metadata
   id="metadata19"><rdf:RDF><cc:Work
       rdf:about=""><dc:format>image/svg+xml</dc:format><dc:type
         rdf:resource="http://purl.org/dc/dcmitype/StillImage" /><dc:title></dc:title></cc:Work></rdf:RDF></metadata><defs
   id="defs17" /><sodipodi:namedview
   pagecolor="#ffffff"
   bordercolor="#666666"
   borderopacity="1"
   objecttolerance="10"
   gridtolerance="10"
   guidetolerance="10"
   inkscape:pageopacity="0"
   inkscape:pageshadow="2"
   inkscape:window-width="1920"
   inkscape:window-height="1017"
   id="namedview15"
   showgrid="false"
   inkscape:zoom="7.375"
   inkscape:cx="77.355628"
   inkscape:cy="1.478935"
   inkscape:window-x="-8"
   inkscape:window-y="-8"
   inkscape:window-maximized="1"
   inkscape:current-layer="Layer_1" /><g
   id="g12"
   transform="matrix(0.09638737,0,0,0.09638737,0.65698888,0.62685396)"><path
     style="fill:#7575c9"
     d="M 0,248.085 C 0,111.064 111.07,0.003 248.076,0.003 c 137.012,0 248.082,111.061 248.082,248.082 0,137.002 -111.07,248.07 -248.082,248.07 C 111.07,496.155 0,385.087 0,248.085 Z"
     data-original="#E04F5F"
     class=""
     data-old_color="#E04F5F"
     id="path2"
     inkscape:connector-curvature="0" /><g
     id="g8">
	<path
   style="fill:#ffffff"
   d="m 400.219,198.83 -150.08,-74.912 c -1.272,-0.6 -2.745,-0.599 -4.018,-0.002 L 95.94,198.829 c -1.652,0.778 -2.707,2.44 -2.707,4.267 v 29.605 c 0,1.614 0.825,3.117 2.188,3.981 1.363,0.865 3.073,0.973 4.535,0.286 L 248.127,163 396.199,236.966 c 0.639,0.301 1.324,0.45 2.009,0.45 0.882,0 1.759,-0.247 2.526,-0.734 1.363,-0.864 2.189,-2.367 2.189,-3.981 v -29.605 c 0.002,-1.827 -1.052,-3.489 -2.704,-4.266 z"
   data-original="#FFFFFF"
   class=""
   id="path4"
   inkscape:connector-curvature="0" />
	<polygon
   style="fill:#ffffff"
   points="240.079,352.916 372.592,352.916 372.592,237.898 248.12,175.898 123.566,237.898 123.566,352.916 192.579,352.916 192.579,264.692 240.079,264.692 "
   data-original="#FFFFFF"
   class=""
   id="polygon6" />
</g><rect
     x="255.74899"
     y="264.689"
     style="fill:#7575c9"
     width="32"
     height="32"
     data-original="#EA4949"
     class="active-path"
     data-old_color="#EA4949"
     id="rect10" /></g> <path
   style="opacity:0.85;fill:#3676e8;fill-opacity:1;stroke:none;stroke-width:0.20374702;stroke-miterlimit:4;stroke-dasharray:0, 2.24121708;stroke-dashoffset:0"
   d="M 20.880598,48.073313 C 9.2132591,46.152115 0.81910198,36.321245 0.81910198,24.578158 c 0,-4.155357 0.85833522,-7.689666 2.71520602,-11.180221 C 7.5311077,5.8847336 15.061176,1.1436152 23.536184,0.80425916 41.208557,0.09662407 53.252642,17.623039 46.40218,34.07859 c -0.99937,2.400593 -2.875648,5.075536 -5.128584,7.311637 -3.522594,3.496276 -7.097519,5.44331 -11.914962,6.489326 -2.064898,0.448354 -6.33873,0.546028 -8.478036,0.19376 z M 19.259467,30.536721 v -4.255468 h 2.229055 2.229056 v 4.255468 4.255469 h 6.484524 6.484524 v -5.626 -5.625999 l -6.074121,-3.031663 -6.07412,-3.031663 -5.983042,2.980508 -5.983042,2.980506 v 5.677155 5.677156 h 3.343584 3.343582 z m -1.825361,-10.522801 7.192179,-3.610988 7.255127,3.628321 c 3.99032,1.995578 7.342217,3.574496 7.448661,3.508711 0.106444,-0.06579 0.193532,-0.940116 0.193532,-1.942956 V 19.773662 L 32.10366,16.13765 c -4.080968,-1.999807 -7.523339,-3.631418 -7.649712,-3.625804 -0.126371,0.0056 -3.512558,1.669806 -7.524856,3.698205 l -7.2950897,3.687997 -0.059531,1.589681 c -0.054453,1.454117 0.1290585,2.183764 0.5402847,2.148181 0.06995,-0.0061 3.363651,-1.635947 7.31935,-3.62199 z"
   id="path826"
   inkscape:connector-curvature="0" /><path
   style="opacity:0.85;fill:#3676e8;fill-opacity:1;stroke:none;stroke-width:0.20374702;stroke-miterlimit:4;stroke-dasharray:0, 2.24121708;stroke-dashoffset:0"
   d="m 25.338709,27.699742 v -1.418489 h 1.51981 1.51981 v 1.418489 1.41849 h -1.51981 -1.51981 z"
   id="path828"
   inkscape:connector-curvature="0" /></svg>