<?xml version="1.0" encoding="UTF-8" standalone="no"?>
<svg
   xmlns:dc="http://purl.org/dc/elements/1.1/"
   xmlns:cc="http://creativecommons.org/ns#"
   xmlns:rdf="http://www.w3.org/1999/02/22-rdf-syntax-ns#"
   xmlns:svg="http://www.w3.org/2000/svg"
   xmlns="http://www.w3.org/2000/svg"
   xmlns:sodipodi="http://sodipodi.sourceforge.net/DTD/sodipodi-0.dtd"
   xmlns:inkscape="http://www.inkscape.org/namespaces/inkscape"
   version="1.1"
   id="Layer_1"
   x="0px"
   y="0px"
   viewBox="0 0 48.45293 48.45293"
   xml:space="preserve"
   width="50"
   height="50"
   class=""
   sodipodi:docname="home.svg"
   inkscape:version="0.92.4 (5da689c313, 2019-01-14)"><metadata
   id="metadata19"><rdf:RDF><cc:Work
       rdf:about=""><dc:format>image/svg+xml</dc:format><dc:type
         rdf:resource="http://purl.org/dc/dcmitype/StillImage" /><dc:title></dc:title></cc:Work></rdf:RDF></metadata><defs
   id="defs17" /><sodipodi:namedview
   pagecolor="#ffffff"
   bordercolor="#666666"
   borderopacity="1"
   objecttolerance="10"
   gridtolerance="10"
   guidetolerance="10"
   inkscape:pageopacity="0"
   inkscape:pageshadow="2"
   inkscape:window-width="1920"
   inkscape:window-height="1017"
   id="namedview15"
   showgrid="false"
   inkscape:zoom="7.375"
   inkscape:cx="44.972159"
   inkscape:cy="20.792377"
   inkscape:window-x="-8"
   inkscape:window-y="-8"
   inkscape:window-maximized="1"
   inkscape:current-layer="Layer_1" /><ellipse
   style="opacity:0.85;fill:#3676e8;fill-opacity:1;stroke:none;stroke-width:0.08380721;stroke-miterlimit:4;stroke-dasharray:0, 0.92187919;stroke-dashoffset:0"
   id="path822"
   cx="24.584766"
   cy="24.168768"
   rx="23.673861"
   ry="23.343716" /><g
   id="g12"
   style="fill:#f8f8f8;fill-opacity:1"
   transform="matrix(0.08248978,0,0,0.08159446,5.1505103,3.85201)"><path
     style="fill:#f8f8f8;fill-opacity:1"
     d="m -9.283166,248.085 c 0,-137.021 111.070006,-248.082 248.076006,-248.082 137.012,0 248.082,111.061 248.082,248.082 0,137.002 -111.07,248.07 -248.082,248.07 -137.006,0 -248.076006,-111.068 -248.076006,-248.07 z"
     data-original="#3676e8"
     class=""
     data-old_color="#3676e8"
     id="path2"
     inkscape:connector-curvature="0" /><g
     id="g8"
     style="fill:#f8f8f8;fill-opacity:1">
	<path
   style="fill:#f8f8f8;fill-opacity:1"
   d="m 400.219,198.83 -150.08,-74.912 c -1.272,-0.6 -2.745,-0.599 -4.018,-0.002 L 95.94,198.829 c -1.652,0.778 -2.707,2.44 -2.707,4.267 v 29.605 c 0,1.614 0.825,3.117 2.188,3.981 1.363,0.865 3.073,0.973 4.535,0.286 L 248.127,163 396.199,236.966 c 0.639,0.301 1.324,0.45 2.009,0.45 0.882,0 1.759,-0.247 2.526,-0.734 1.363,-0.864 2.189,-2.367 2.189,-3.981 v -29.605 c 0.002,-1.827 -1.052,-3.489 -2.704,-4.266 z"
   data-original="#FFFFFF"
   class=""
   id="path4"
   inkscape:connector-curvature="0" />
	<polygon
   style="fill:#f8f8f8;fill-opacity:1"
   points="192.579,264.692 240.079,264.692 240.079,352.916 372.592,352.916 372.592,237.898 248.12,175.898 123.566,237.898 123.566,352.916 192.579,352.916 "
   data-original="#FFFFFF"
   class=""
   id="polygon6" />
</g><rect
     x="255.74899"
     y="264.689"
     style="fill:#f8f8f8;fill-opacity:1"
     width="32"
     height="32"
     data-original="#3676e8"
     class="active-path"
     data-old_color="#3676e8"
     id="rect10" /></g> <path
   style="opacity:0.85;fill:#3676e8;fill-opacity:1;stroke:none;stroke-width:0.14638291;stroke-miterlimit:4;stroke-dasharray:0, 1.61021203;stroke-dashoffset:0"
   d="m 11.962178,28.667118 v -5.496249 l 6.12466,-2.96818 6.124659,-2.968178 6.063197,2.979044 6.063196,2.979047 v 5.485383 5.485383 h -6.461031 -6.461033 v -4.258211 -4.258214 h -2.422887 -2.422887 v 4.258214 4.258211 h -3.303938 -3.303936 z m 16.15258,-1.432367 V 25.646943 H 26.4995 24.884241 v 1.587808 1.587808 h 1.615259 1.615258 z"
   id="path831"
   inkscape:connector-curvature="0" /><path
   style="opacity:0.85;fill:#3676e8;fill-opacity:1;stroke:none;stroke-width:0.14638291;stroke-miterlimit:4;stroke-dasharray:0, 1.61021203;stroke-dashoffset:0"
   d="M 9.187564,22.956649 C 9.133721,22.903719 9.089666,22.140197 9.089666,21.259929 v -1.60049 l 7.562345,-3.716077 7.562344,-3.716077 7.562344,3.716077 7.562346,3.716077 v 1.642591 1.642591 l -0.477237,-0.0904 c -0.262479,-0.04972 -3.668537,-1.647906 -7.569015,-3.551527 l -7.091781,-3.461132 -7.334833,3.605656 c -4.034158,1.983113 -7.3901577,3.60566 -7.4577768,3.60566 -0.067622,0 -0.1669975,-0.04331 -0.2208387,-0.09623 z"
   id="path833"
   inkscape:connector-curvature="0" /><path
   style="opacity:0.85;fill:#3676e8;fill-opacity:1;stroke:none;stroke-width:0.00914893;stroke-miterlimit:4;stroke-dasharray:0, 0.10063826;stroke-dashoffset:0"
   d="m 12.004301,23.125216 0.0029,-0.03376 5.324188,-2.579398 5.324186,-2.579396 0.06105,0.0027 0.06105,0.0027 -5.379526,2.607254 c -2.95874,1.433989 -5.383405,2.608695 -5.388145,2.61046 -0.0047,0.0018 -0.0073,-0.01197 -0.0057,-0.03055 z"
   id="path835"
   inkscape:connector-curvature="0" /><path
   style="opacity:0.85;fill:#3676e8;fill-opacity:1;stroke:none;stroke-width:0.01293855;stroke-miterlimit:4;stroke-dasharray:0, 0.14232398;stroke-dashoffset:0"
   d="M 9.1716104,22.939837 C 9.05579,22.829044 9.026336,22.773773 8.9980305,22.614122 c -0.043113,-0.243156 -0.05249,-0.43487 -0.051436,-1.05103 0.00115,-0.676196 0.037542,-2.034019 0.054956,-2.051136 0.00607,-0.006 1.4520485,-0.722463 3.2132435,-1.592178 1.959185,-0.967486 3.215642,-1.581027 3.236865,-1.580594 0.0215,4.84e-4 -1.186954,0.601486 -3.180883,1.582062 L 9.0552072,19.5026 9.055425,20.596639 c 2.956e-4,1.470158 0.028372,2.100509 0.098299,2.20712 0.020646,0.03147 0.119155,0.08469 0.1811239,0.09784 0.048754,0.01037 0.045383,0.01172 0.5315538,-0.215932 1.1842653,-0.554546 3.4932823,-1.678572 8.6430693,-4.207433 3.884789,-1.907671 4.365569,-2.140598 4.411348,-2.137198 0.04606,0.0033 -0.554197,0.301111 -5.800648,2.87677 -5.215363,2.560395 -7.5919599,3.72204 -7.7642752,3.795058 -0.030929,0.01311 -0.062258,0.02384 -0.069629,0.02384 -0.00734,0 -0.058956,-0.04359 -0.114651,-0.09686 z"
   id="path837"
   inkscape:connector-curvature="0" /></svg>