<?xml version="1.0" encoding="UTF-8" standalone="no"?>
<svg
   xmlns:dc="http://purl.org/dc/elements/1.1/"
   xmlns:cc="http://creativecommons.org/ns#"
   xmlns:rdf="http://www.w3.org/1999/02/22-rdf-syntax-ns#"
   xmlns:svg="http://www.w3.org/2000/svg"
   xmlns="http://www.w3.org/2000/svg"
   xmlns:sodipodi="http://sodipodi.sourceforge.net/DTD/sodipodi-0.dtd"
   xmlns:inkscape="http://www.inkscape.org/namespaces/inkscape"
   version="1.1"
   id="Capa_1"
   x="0px"
   y="0px"
   width="512px"
   height="512px"
   viewBox="0 0 80 80"
   style="enable-background:new 0 0 80 80;"
   xml:space="preserve"
   sodipodi:docname="search.svg"
   inkscape:version="0.92.4 (5da689c313, 2019-01-14)"><metadata
   id="metadata17"><rdf:RDF><cc:Work
       rdf:about=""><dc:format>image/svg+xml</dc:format><dc:type
         rdf:resource="http://purl.org/dc/dcmitype/StillImage" /><dc:title></dc:title></cc:Work></rdf:RDF></metadata><defs
   id="defs15" /><sodipodi:namedview
   pagecolor="#ffffff"
   bordercolor="#666666"
   borderopacity="1"
   objecttolerance="10"
   gridtolerance="10"
   guidetolerance="10"
   inkscape:pageopacity="0"
   inkscape:pageshadow="2"
   inkscape:window-width="1920"
   inkscape:window-height="1017"
   id="namedview13"
   showgrid="false"
   inkscape:zoom="0.921875"
   inkscape:cx="203.19788"
   inkscape:cy="260.75637"
   inkscape:window-x="-8"
   inkscape:window-y="-8"
   inkscape:window-maximized="1"
   inkscape:current-layer="Capa_1" /> <ellipse
   style="opacity:0.85;fill:#7575c9;fill-opacity:1;stroke:none;stroke-width:0.16863796;stroke-miterlimit:4;stroke-dasharray:0, 1.85501762;stroke-dashoffset:0"
   id="path826"
   cx="40.318783"
   cy="39.601254"
   rx="40.149284"
   ry="40.127472" /><ellipse
   style="opacity:0.85;fill:#ffffff;fill-opacity:1;stroke:none;stroke-width:0.15346873;stroke-miterlimit:4;stroke-dasharray:0, 1.68815577999999999;stroke-dashoffset:0"
   id="path830"
   cx="40.508472"
   cy="39.99157"
   rx="35.59322"
   ry="35.432167" /><path
   style="opacity:0.85;fill:#7575c9;fill-opacity:1;stroke:none;stroke-width:0.34083259;stroke-miterlimit:4;stroke-dasharray:0, 3.7491583;stroke-dashoffset:0"
   d="M 55.099179,64.716924 C 54.673782,64.504514 52.3674,61.234641 49.905692,57.353855 46.021512,51.2306 45.493981,50.227774 45.612115,49.191838 45.723028,48.219241 45.431259,47.521672 43.958954,45.239413 l -1.787845,-2.771385 -1.965291,0.798755 c -7.376659,2.998099 -15.890964,-0.458608 -19.486839,-7.911422 -0.964572,-1.999173 -1.110317,-2.675853 -1.219172,-5.660445 -0.101406,-2.780361 0.0028,-3.750592 0.579594,-5.396364 1.965381,-5.607858 6.548256,-9.471574 12.380935,-10.43808 4.558423,-0.755355 9.644987,0.983877 13.065087,4.467305 5.729213,5.835294 5.923823,14.728625 0.459009,20.97573 l -1.500573,1.715379 1.836586,2.846938 c 1.466594,2.273406 2.038714,2.887364 2.839936,3.047609 0.868434,0.173686 1.60314,1.13928 5.463859,7.180903 4.729336,7.400925 5.133753,8.443397 3.867286,9.968788 -0.71633,0.86277 -2.345126,1.17669 -3.392347,0.6538 z M 38.968589,37.550386 c 6.874307,-3.483475 6.933736,-13.553284 0.100422,-17.015987 -6.470286,-3.278741 -13.924943,1.262354 -13.924943,8.482551 0,2.917017 1.008163,5.179622 3.17663,7.129261 0.936264,0.841781 2.385781,1.740558 3.259048,2.02078 2.239613,0.718666 5.249485,0.467491 7.388843,-0.616605 z"
   id="path824"
   inkscape:connector-curvature="0" /><path
   style="opacity:0.85;fill:#ffffff;fill-opacity:1;stroke:none;stroke-width:1.09066427;stroke-miterlimit:4;stroke-dasharray:0, 11.99730657;stroke-dashoffset:0"
   d="M 227.98633,480.09948 C 154.7007,470.1546 90.274849,424.32434 56.625628,358.19956 45.366437,336.0739 37.951007,312.82454 34.136809,287.69109 31.592087,270.9228 31.607591,240.61274 34.169491,223.79541 49.345435,124.17446 126.40434,46.931311 225.25521,32.252821 c 36.11429,-5.362656 70.94298,-2.323506 106.1021,9.258464 82.88196,27.302627 142.8459,100.527215 153.60604,187.575085 1.68476,13.6294 1.39857,43.63221 -0.5494,57.59863 -6.89651,49.44589 -29.02981,93.74596 -64.45428,129.00609 -35.91062,35.74401 -81.03714,57.97047 -131.0682,64.55589 -15.24485,2.00663 -45.57218,1.93318 -60.90514,-0.1475 z m 141.63169,-66.16925 c 5.66583,-2.6886 8.55974,-7.48983 8.49474,-14.09346 -0.0663,-6.73769 -5.16143,-17.21575 -19.45551,-40.01009 -27.26126,-43.47269 -39.61549,-60.20339 -44.45525,-60.20339 -3.22176,0 -9.25537,-6.89833 -18.99163,-21.71347 l -9.99225,-15.20468 7.51431,-8.93075 c 13.63157,-16.20111 19.75213,-27.33123 24.33768,-44.25749 3.38815,-12.50642 3.41726,-35.44384 0.0606,-47.75762 -7.90654,-29.00483 -27.124,-51.81189 -54.80801,-65.045458 -13.93698,-6.66219 -23.89978,-8.908634 -39.81638,-8.977939 -9.23718,-0.04022 -15.88889,0.520727 -20.86759,1.75979 -35.46928,8.827333 -61.51602,32.307227 -73.34178,66.114087 -3.87688,11.08303 -3.89349,11.2088 -3.76228,28.48811 0.0725,9.54576 0.65361,20.17563 1.29138,23.62193 4.09897,22.14921 23.90263,49.14505 45.43993,61.9425 12.07537,7.17518 27.51711,12.32039 41.74869,13.91073 14.60424,1.63199 28.20191,-0.39548 44.93007,-6.69924 6.37687,-2.40303 11.70232,-4.36914 11.83432,-4.36914 0.50609,0 16.53204,25.72387 18.80127,30.17866 1.31317,2.57792 2.78188,8.2031 3.26382,12.50041 1.02093,9.10367 2.25545,11.72888 16.14757,34.33788 18.9823,30.89308 38.51019,59.49881 43.87516,64.27119 2.77308,2.46677 12.68074,2.54349 17.7511,0.13744 z"
   id="path846"
   inkscape:connector-curvature="0"
   transform="scale(0.15625)" /><path
   style="opacity:0.85;fill:#ffffff;fill-opacity:1;stroke:none;stroke-width:1.09066427;stroke-miterlimit:4;stroke-dasharray:0, 11.99730657;stroke-dashoffset:0"
   d="m 210.03178,245.75201 c -12.11613,-2.60854 -23.97499,-9.65401 -33.41879,-19.85444 -10.29219,-11.11679 -14.81791,-23.21633 -14.83952,-39.67349 -0.0239,-18.23455 4.89575,-30.40616 17.31596,-42.84067 9.15708,-9.16763 17.74061,-14.23747 28.33144,-16.73391 20.69887,-4.87907 41.86807,1.14708 56.86675,16.18803 8.87476,8.89978 12.76266,15.63365 15.73396,27.25133 5.54409,21.67712 -0.16288,42.8685 -15.75251,58.49298 -8.90234,8.92224 -17.67299,13.64303 -30.05596,16.17757 -7.80864,1.59828 -19.19682,2.06574 -24.18133,0.9926 z"
   id="path848"
   inkscape:connector-curvature="0"
   transform="scale(0.15625)" /></svg>