<?xml version="1.0" encoding="UTF-8" standalone="no"?>
<svg
   xmlns:dc="http://purl.org/dc/elements/1.1/"
   xmlns:cc="http://creativecommons.org/ns#"
   xmlns:rdf="http://www.w3.org/1999/02/22-rdf-syntax-ns#"
   xmlns:svg="http://www.w3.org/2000/svg"
   xmlns="http://www.w3.org/2000/svg"
   xmlns:sodipodi="http://sodipodi.sourceforge.net/DTD/sodipodi-0.dtd"
   xmlns:inkscape="http://www.inkscape.org/namespaces/inkscape"
   id="Layer_1"
   enable-background="new 0 0 512 512"
   height="512px"
   viewBox="0 0 512 512"
   width="512px"
   class=""
   version="1.1"
   sodipodi:docname="search.svg"
   inkscape:version="0.92.4 (5da689c313, 2019-01-14)">
  <metadata
     id="metadata61">
    <rdf:RDF>
      <cc:Work
         rdf:about="">
        <dc:format>image/svg+xml</dc:format>
        <dc:type
           rdf:resource="http://purl.org/dc/dcmitype/StillImage" />
      </cc:Work>
    </rdf:RDF>
  </metadata>
  <defs
     id="defs59" />
  <sodipodi:namedview
     pagecolor="#ffffff"
     bordercolor="#666666"
     borderopacity="1"
     objecttolerance="10"
     gridtolerance="10"
     guidetolerance="10"
     inkscape:pageopacity="0"
     inkscape:pageshadow="2"
     inkscape:window-width="1920"
     inkscape:window-height="1017"
     id="namedview57"
     showgrid="false"
     inkscape:zoom="0.65186406"
     inkscape:cx="222.64329"
     inkscape:cy="254.09371"
     inkscape:window-x="-8"
     inkscape:window-y="-8"
     inkscape:window-maximized="1"
     inkscape:current-layer="Layer_1" />
  <g
     id="g1180"
     transform="matrix(0.95372641,0,0,0.95372641,-558.74769,183.87144)">
    <path
       id="path1017"
       d="m 1086.4726,-105.27604 v 304 a 31.936,31.936 0 0 0 -24,-30.96 v -273.04 z"
       inkscape:connector-curvature="0"
       style="fill:#66cd00;fill-opacity:1;stroke-width:8" />
    <path
       id="path1019"
       d="m 1086.4726,198.72396 a 31.96,31.96 0 0 1 -32,32 H 910.47264 v -64 h 143.99996 a 29.256,29.256 0 0 1 8,1.04 31.936,31.936 0 0 1 24,30.96 z"
       inkscape:connector-curvature="0"
       style="fill:#3676e8;fill-opacity:1;stroke-width:8" />
    <path
       id="path1021"
       d="m 1086.4726,198.72396 a 31.96,31.96 0 0 1 -32,32 h -32 a 32,32 0 0 0 8,-62.96 29.256,29.256 0 0 0 -8,-1.04 h 32 a 29.256,29.256 0 0 1 8,1.04 31.936,31.936 0 0 1 24,30.96 z"
       inkscape:connector-curvature="0"
       style="fill:#2455ac;fill-opacity:1;stroke-width:8" />
    <path
       id="path1023"
       d="m 1062.4726,-137.27604 v 305.04 a 29.256,29.256 0 0 0 -8,-1.04 H 910.47264 v 16 h -32.96 a 127.784,127.784 0 0 0 -23.04,-58.72 v -229.28 a 32,32 0 0 1 32,-32 z"
       inkscape:connector-curvature="0"
       style="fill:#ffa500;fill-opacity:1;stroke-width:8" />
    <path
       id="path1025"
       d="m 1062.4726,-137.27604 v 305.04 a 29.256,29.256 0 0 0 -8,-1.04 h -24 v -304 z"
       inkscape:connector-curvature="0"
       style="fill:#000000;fill-opacity:0;stroke-width:8" />
    <path
       id="path1027"
       d="m 910.47264,182.72396 v 32 h -32.96 a 133.816,133.816 0 0 0 0,-32 z"
       inkscape:connector-curvature="0"
       style="fill:#dc143c;fill-opacity:1;stroke-width:8" />
    <path
       id="path1029"
       d="m 878.47264,198.72396 a 132.192,132.192 0 0 1 -0.96,16 128.128,128.128 0 1 1 0,-32 132.192,132.192 0 0 1 0.96,16 z"
       inkscape:connector-curvature="0"
       style="fill:#3676e8;fill-opacity:1;stroke-width:8" />
    <path
       id="path1031"
       d="m 854.47264,-105.27604 v 229.28 a 128.144,128.144 0 0 0 -208,0 v -261.28 h 176 a 32,32 0 0 1 32,32 z"
       inkscape:connector-curvature="0"
       style="fill:#ffa500;fill-opacity:1;stroke-width:8" />
    <circle
       id="circle1033"
       r="96"
       cy="198.72395"
       cx="750.47266"
       style="fill:#bdfdff;stroke-width:8" />
    <path
       id="path1035"
       d="m 646.47264,-105.27604 v 229.28 a 127.48,127.48 0 0 0 -24,74.72 v -304 z"
       inkscape:connector-curvature="0"
       style="fill:#66cd00;fill-opacity:1;stroke-width:8" />
    <path
       id="path1037"
       d="m 878.47264,198.72396 a 127.336,127.336 0 0 1 -41.6,94.48 128.24,128.24 0 0 1 -70.4,32.56 133.816,133.816 0 0 1 -32,0 128.24,128.24 0 0 0 70.4,-32.56 128,128 0 0 0 -70.4,-221.44 117.704,117.704 0 0 1 16,-1.04 128,128 0 0 1 128,128 z"
       inkscape:connector-curvature="0"
       style="fill:#2455ac;fill-opacity:1;stroke-width:8" />
    <path
       id="path1039"
       d="m 846.47264,198.72396 a 95.904,95.904 0 0 1 -112,94.64 96,96 0 0 0 0,-189.28 95.904,95.904 0 0 1 112,94.64 z"
       inkscape:connector-curvature="0"
       style="fill:#46f8ff;stroke-width:8" />
    <path
       style="fill:#000000;fill-opacity:1;stroke-width:8"
       id="path1041"
       d="m 966.47264,190.72396 h 95.99996 v 16 h -95.99996 z"
       inkscape:connector-curvature="0" />
    <path
       style="fill:#000000;fill-opacity:1;stroke-width:8"
       id="path1043"
       d="m 934.47264,190.72396 h 16 v 16 h -16 z"
       inkscape:connector-curvature="0" />
    <path
       style="stroke-width:8"
       id="path1045"
       d="m 894.47264,-97.27604 h 127.99996 v 16 H 894.47264 Z"
       inkscape:connector-curvature="0" />
    <path
       style="stroke-width:8"
       id="path1047"
       d="m 894.47264,-49.27604 h 127.99996 v 16 H 894.47264 Z"
       inkscape:connector-curvature="0" />
    <path
       style="stroke-width:8"
       id="path1049"
       d="m 894.47264,-1.27604 h 127.99996 v 16 H 894.47264 Z"
       inkscape:connector-curvature="0" />
    <path
       style="stroke-width:8"
       id="path1051"
       d="m 894.47264,46.72396 h 127.99996 v 16 H 894.47264 Z"
       inkscape:connector-curvature="0" />
    <path
       style="stroke-width:8"
       id="path1053"
       d="m 894.47264,94.72396 h 127.99996 v 16 H 894.47264 Z"
       inkscape:connector-curvature="0" />
    <path
       style="stroke-width:8"
       id="path1055"
       d="m 686.47264,-97.27604 h 128 v 16 h -128 z"
       inkscape:connector-curvature="0" />
    <path
       style="stroke-width:8"
       id="path1057"
       d="m 686.47264,-49.27604 h 128 v 16 h -128 z"
       inkscape:connector-curvature="0" />
    <path
       style="stroke-width:8"
       id="path1059"
       d="m 686.47264,-1.27604 h 128 v 16 h -128 z"
       inkscape:connector-curvature="0" />
    <path
       style="stroke-width:8"
       id="path1061"
       d="m 814.47264,46.72396 h -128 v 16 h 64 64 z"
       inkscape:connector-curvature="0" />
    <path
       style="fill:#000000;fill-opacity:1;stroke-width:8"
       id="path1065"
       d="m 750.47264,94.72396 a 104,104 0 1 0 104,104 104.12,104.12 0 0 0 -104,-104 z m 0,192 a 88,88 0 1 1 88,-88 88.104,88.104 0 0 1 -88,88 z"
       inkscape:connector-curvature="0" />
    <path
       style="fill:#000000;fill-opacity:1;stroke-width:8"
       id="path1067"
       d="m 678.47264,198.72396 h 16 a 56.064,56.064 0 0 1 56,-56 v -16 a 72.08,72.08 0 0 0 -72,72 z"
       inkscape:connector-curvature="0" />
  </g>
</svg>
