<?xml version="1.0" encoding="UTF-8" standalone="no"?>
<svg
   xmlns:dc="http://purl.org/dc/elements/1.1/"
   xmlns:cc="http://creativecommons.org/ns#"
   xmlns:rdf="http://www.w3.org/1999/02/22-rdf-syntax-ns#"
   xmlns:svg="http://www.w3.org/2000/svg"
   xmlns="http://www.w3.org/2000/svg"
   xmlns:sodipodi="http://sodipodi.sourceforge.net/DTD/sodipodi-0.dtd"
   xmlns:inkscape="http://www.inkscape.org/namespaces/inkscape"
   version="1.1"
   id="Layer_1"
   x="0px"
   y="0px"
   viewBox="0 0 496.158 496.158"
   style="enable-background:new 0 0 496.158 496.158;"
   xml:space="preserve"
   width="512px"
   height="512px"
   class=""
   sodipodi:docname="home.svg"
   inkscape:version="0.92.4 (5da689c313, 2019-01-14)"><metadata
   id="metadata19"><rdf:RDF><cc:Work
       rdf:about=""><dc:format>image/svg+xml</dc:format><dc:type
         rdf:resource="http://purl.org/dc/dcmitype/StillImage" /></cc:Work></rdf:RDF></metadata><defs
   id="defs17" /><sodipodi:namedview
   pagecolor="#ffffff"
   bordercolor="#666666"
   borderopacity="1"
   objecttolerance="10"
   gridtolerance="10"
   guidetolerance="10"
   inkscape:pageopacity="0"
   inkscape:pageshadow="2"
   inkscape:window-width="1920"
   inkscape:window-height="1017"
   id="namedview15"
   showgrid="false"
   inkscape:zoom="0.921875"
   inkscape:cx="-182.50881"
   inkscape:cy="289.61364"
   inkscape:window-x="-8"
   inkscape:window-y="-8"
   inkscape:window-maximized="1"
   inkscape:current-layer="Layer_1" /><ellipse
   style="opacity:0.85;fill:#6690e8;fill-opacity:1;stroke:none;stroke-width:0.85575026;stroke-miterlimit:4;stroke-dasharray:0, 9.41325307;stroke-dashoffset:0"
   id="path822"
   cx="252.01205"
   cy="248.76042"
   rx="239.66954"
   ry="240.41284" /><g
   id="g12"
   style="fill:#f8f8f8;fill-opacity:1"
   transform="matrix(0.83511043,0,0,0.84032708,55.263426,39.521684)"><path
     style="fill:#f8f8f8;fill-opacity:1"
     d="m -9.283166,248.085 c 0,-137.021 111.070006,-248.082 248.076006,-248.082 137.012,0 248.082,111.061 248.082,248.082 0,137.002 -111.07,248.07 -248.082,248.07 -137.006,0 -248.076006,-111.068 -248.076006,-248.07 z"
     data-original="#E04F5F"
     class=""
     data-old_color="#E04F5F"
     id="path2"
     inkscape:connector-curvature="0" /><g
     id="g8"
     style="fill:#f8f8f8;fill-opacity:1">
	<path
   style="fill:#f8f8f8;fill-opacity:1"
   d="m 400.219,198.83 -150.08,-74.912 c -1.272,-0.6 -2.745,-0.599 -4.018,-0.002 L 95.94,198.829 c -1.652,0.778 -2.707,2.44 -2.707,4.267 v 29.605 c 0,1.614 0.825,3.117 2.188,3.981 1.363,0.865 3.073,0.973 4.535,0.286 L 248.127,163 396.199,236.966 c 0.639,0.301 1.324,0.45 2.009,0.45 0.882,0 1.759,-0.247 2.526,-0.734 1.363,-0.864 2.189,-2.367 2.189,-3.981 v -29.605 c 0.002,-1.827 -1.052,-3.489 -2.704,-4.266 z"
   data-original="#FFFFFF"
   class=""
   id="path4"
   inkscape:connector-curvature="0" />
	<polygon
   style="fill:#f8f8f8;fill-opacity:1"
   points="123.566,237.898 123.566,352.916 192.579,352.916 192.579,264.692 240.079,264.692 240.079,352.916 372.592,352.916 372.592,237.898 248.12,175.898 "
   data-original="#FFFFFF"
   class=""
   id="polygon6" />
</g><rect
     x="255.74899"
     y="264.689"
     style="fill:#f8f8f8;fill-opacity:1"
     width="32"
     height="32"
     data-original="#EA4949"
     class="active-path"
     data-old_color="#EA4949"
     id="rect10" /></g> <path
   style="opacity:0.85;fill:#6690e8;fill-opacity:1;stroke:none;stroke-width:1.49470711;stroke-miterlimit:4;stroke-dasharray:0, 16.44177838;stroke-dashoffset:0"
   d="m 124.22342,295.08814 v -56.60492 l 62.00486,-30.56876 62.00486,-30.56875 61.38261,30.68066 61.38262,30.68068 v 56.493 56.49301 h -65.41022 -65.41024 v -43.85459 -43.85459 h -24.52883 -24.52884 v 43.85459 43.85459 h -33.44841 -33.44841 z m 163.52557,-14.7517 v -16.35256 h -16.35255 -16.35257 v 16.35256 16.35256 h 16.35257 16.35255 z"
   id="path831"
   inkscape:connector-curvature="0" /><path
   style="opacity:0.85;fill:#6690e8;fill-opacity:1;stroke:none;stroke-width:1.49470711;stroke-miterlimit:4;stroke-dasharray:0, 16.44177838;stroke-dashoffset:0"
   d="m 96.13377,236.27701 c -0.54509,-0.54508 -0.99107,-8.40849 -0.99107,-17.47423 v -16.48316 l 76.5597,-38.27123 76.5597,-38.27122 76.5597,38.27122 76.55971,38.27123 v 16.91676 16.91675 l -4.83145,-0.931 c -2.65728,-0.51205 -37.13956,-16.9715 -76.62725,-36.57656 L 248.127,163 173.87058,200.13403 c -40.84104,20.42373 -74.81652,37.13405 -75.50109,37.13405 -0.68457,0 -1.69064,-0.44598 -2.23572,-0.99107 z"
   id="path833"
   inkscape:connector-curvature="0" /><path
   style="opacity:0.85;fill:#6690e8;fill-opacity:1;stroke:none;stroke-width:0.09640201;stroke-miterlimit:4;stroke-dasharray:0, 1.06042211;stroke-dashoffset:0"
   d="m 128.62985,245.61265 0.0304,-0.35876 55.62206,-27.41295 55.62205,-27.41295 0.6378,0.0286 0.63779,0.0286 -56.2002,27.709 c -30.9101,15.23995 -56.2407,27.72434 -56.29021,27.74309 -0.0495,0.0188 -0.0763,-0.12735 -0.0597,-0.32466 z"
   id="path835"
   inkscape:connector-curvature="0"
   transform="scale(0.96905859)" /><path
   style="opacity:0.85;fill:#6690e8;fill-opacity:1;stroke:none;stroke-width:0.13633303;stroke-miterlimit:4;stroke-dasharray:0, 1.49966332;stroke-dashoffset:0"
   d="m 99.036589,243.6425 c -1.209987,-1.17749 -1.517687,-1.76486 -1.8134,-3.46158 -0.450383,-2.58418 -0.548394,-4.62164 -0.53733,-11.16999 0.01214,-7.18638 0.392178,-21.61686 0.574083,-21.79877 0.0636,-0.0636 15.169618,-7.67811 33.568928,-16.92114 20.4677,-10.2821 33.59397,-16.8026 33.81568,-16.79801 0.22471,0.005 -12.40015,6.39239 -33.23083,16.81362 l -33.593221,16.8061 0.0023,11.62707 c 0.0031,15.62434 0.296383,22.32349 1.026883,23.45652 0.215637,0.33446 1.244818,0.90005 1.892208,1.03987 0.50938,0.11001 0.47411,0.12458 5.55318,-2.29486 12.37208,-5.89352 36.49451,-17.83929 90.29459,-44.71517 40.58459,-20.27407 45.60733,-22.74954 46.08558,-22.71341 0.48121,0.0364 -5.78972,3.20012 -60.59968,30.57334 -54.48516,27.21101 -79.31359,39.55657 -81.11377,40.33259 -0.32313,0.1393 -0.65048,0.25327 -0.72744,0.25327 -0.0769,0 -0.615954,-0.46325 -1.197773,-1.02945 z"
   id="path837"
   inkscape:connector-curvature="0"
   transform="scale(0.96905859)" /></svg>