<?xml version="1.0"?>
<svg xmlns="http://www.w3.org/2000/svg" id="Layer_1" enable-background="new 0 0 512 512" height="512px" viewBox="0 0 512 512" width="512px" class=""><g><g><g><path clip-rule="evenodd" d="m454.118 345.491-238.573 118.827 12.419 24.945c6.748 13.549 23.364 19.105 36.946 12.359l189.265-94.251c13.553-6.746 19.139-23.357 12.391-36.935z" fill="#808b95" fill-rule="evenodd" data-original="#808B95" class="" style="fill:#D3D3D3" data-old_color="#808b95"/></g><g><path clip-rule="evenodd" d="m466.566 370.436-12.448-24.944-27.277 13.606 12.419 24.944c6.748 13.549 1.191 30.16-12.362 36.935l27.277-13.606c13.553-6.747 19.139-23.358 12.391-36.935z" fill="#566b74" fill-rule="evenodd" data-original="#566B74" class="" style="fill:#BDBDBD" data-old_color="#566b74"/></g><g><path clip-rule="evenodd" d="m67.082 104.635c-13.553 6.746-19.111 23.385-12.362 36.935 53.618 107.573 107.208 215.175 160.826 322.748l238.573-118.827c-53.591-107.573-107.209-215.146-160.826-322.748-6.748-13.549-23.364-19.105-36.917-12.359-43.269 21.543-145.997 72.708-189.294 94.251z" fill="#b1d7fe" fill-rule="evenodd" data-original="#B1D7FE" class="" style="fill:#6495ED" data-old_color="#b1d7fe"/></g><g><path clip-rule="evenodd" d="m454.118 345.491c-53.59-107.573-107.208-215.146-160.825-322.748-6.748-13.549-23.364-19.105-36.917-12.359l-27.306 13.578c13.553-6.746 30.197-1.162 36.946 12.387 53.59 107.573 107.208 215.175 160.826 322.748z" fill="#8bc6f8" fill-rule="evenodd" data-original="#8BC6F8" class="" style="fill:#4D86EB" data-old_color="#8bc6f8"/></g><g><path clip-rule="evenodd" d="m211.575 32.693-99.694 49.634 8.45 16.923c4.622 9.298 16.02 13.124 25.349 8.504l65.839-32.796c9.3-4.649 13.128-16.044 8.478-25.341z" fill="#808b95" fill-rule="evenodd" data-original="#808B95" class="" style="fill:#D3D3D3" data-old_color="#808b95"/></g><g><path clip-rule="evenodd" d="m219.997 49.615-8.421-16.923-24.441 12.16 8.421 16.923c4.65 9.326.822 20.721-8.506 25.341l24.47-12.16c9.299-4.648 13.127-16.043 8.477-25.341z" fill="#566b74" fill-rule="evenodd" data-original="#566B74" class="" style="fill:#BDBDBD" data-old_color="#566b74"/></g><g><path d="m150.329 450.167c-.005-.114-.01-.228-.015-.341l-2.467-27.978c-.364-4.127-4.014-7.191-8.128-6.811-4.125.363-7.175 4.003-6.811 8.13l1.161 13.167c-36.308-23.834-64.379-57.382-81.643-97.79-19.202-44.88-23.062-93.589-11.162-140.86 1.011-4.016-1.424-8.092-5.441-9.104-4.015-1.01-8.091 1.426-9.102 5.442-12.708 50.483-8.587 102.498 11.917 150.42 18.234 42.679 47.768 78.191 85.937 103.59l-15.032 4.413c-3.974 1.166-6.249 5.334-5.083 9.308.959 3.269 3.949 5.389 7.191 5.389.699 0 1.41-.099 2.115-.306l31.19-9.155c3.272-.96 5.517-4.115 5.373-7.514z" data-original="#000000" class="active-path" style="fill:#000000" data-old_color="#000000"/><path d="m403.723 227.515c-1.847-3.706-6.348-5.213-10.056-3.367-3.706 1.849-5.213 6.351-3.366 10.058l53.773 107.909-93.277 46.467c-3.707 1.847-5.215 6.349-3.369 10.057 1.312 2.634 3.963 4.158 6.718 4.158 1.123 0 2.264-.254 3.337-.788l93.281-46.469 9.087 18.235c4.92 9.899.875 21.957-9.019 26.882l-189.258 94.248c-9.912 4.922-21.979.892-26.899-8.987l-9.081-18.226 102.257-50.914c3.707-1.846 5.216-6.347 3.371-10.056-1.845-3.707-6.346-5.216-10.054-3.371l-102.263 50.917-65.635-131.738-91.839-184.304c-2.372-4.763-2.739-10.195-1.032-15.295 1.706-5.099 5.266-9.212 10.025-11.582l38.096-18.969 5.097 10.207c4.602 9.259 13.965 14.629 23.689 14.629 3.944 0 7.948-.884 11.717-2.75l65.848-32.801c6.288-3.143 10.986-8.561 13.228-15.254 2.246-6.704 1.75-13.861-1.39-20.138l-5.081-10.21 38.088-18.964c9.892-4.928 21.944-.893 26.866 8.99l87.756 176.085c1.848 3.707 6.35 5.217 10.056 3.366 3.707-1.848 5.213-6.35 3.366-10.057l-87.756-176.083c-8.607-17.282-29.678-24.34-46.97-15.729l-87.359 43.496-57.135 28.446c-.01.005-.02.012-.03.017l-44.769 22.291c-8.349 4.155-14.586 11.347-17.565 20.251-2.976 8.898-2.326 18.395 1.832 26.743l91.839 184.305 81.405 163.385c6.115 12.279 18.534 19.395 31.425 19.395 5.244 0 10.567-1.179 15.575-3.666l189.263-94.25c17.292-8.607 24.364-29.685 15.761-46.994zm-218.422-173.364 22.903-11.402 5.087 10.222c1.35 2.699 1.559 5.78.589 8.676-.972 2.901-3.001 5.246-5.704 6.596l-65.823 32.789c-5.646 2.8-12.514.5-15.313-5.134l-5.094-10.203z" data-original="#000000" class="active-path" style="fill:#000000" data-old_color="#000000"/><path d="m473.376 158.72c-18.223-42.651-47.761-78.163-85.951-103.59l15.019-4.413c3.973-1.168 6.248-5.336 5.081-9.31-1.167-3.973-5.335-6.25-9.307-5.082l-31.161 9.156c-3.376.992-5.668 4.337-5.357 7.847l2.438 27.977c.34 3.905 3.614 6.849 7.461 6.848.218 0 .439-.009.66-.028 4.125-.359 7.178-3.996 6.819-8.123l-1.148-13.176c36.329 23.862 64.406 57.411 81.658 97.788 19.199 44.937 23.051 93.646 11.136 140.86-1.013 4.015 1.42 8.092 5.435 9.107.616.155 1.233.229 1.84.229 3.353 0 6.407-2.266 7.265-5.667 12.723-50.424 8.612-102.44-11.888-150.423z" data-original="#000000" class="active-path" style="fill:#000000" data-old_color="#000000"/><path d="m346.476 251.549c1.145.63 2.383.928 3.604.928 2.647 0 5.214-1.405 6.578-3.889 1.994-3.631.668-8.19-2.961-10.184l-30.586-16.806c4.225-4.85 6.733-10.845 7.138-17.47.723-11.828-5.194-23.694-15.075-30.231-9.108-6.026-20.278-6.513-30.634-1.341l-27.249 13.549c-1.782.886-3.139 2.444-3.771 4.332-.633 1.888-.489 3.949.399 5.73l21.663 43.455c.038.077.089.144.129.219l16.855 33.824c1.312 2.633 3.962 4.156 6.717 4.156 1.124 0 2.265-.254 3.339-.789 3.706-1.848 5.213-6.351 3.366-10.058l-13.623-27.338 17.006-8.474zm-40.336-35.537c-.016.008-.033.016-.049.024l-20.435 10.181-14.968-30.026 20.538-10.212c7.079-3.536 12.431-1.72 15.673.425 5.323 3.522 8.77 10.433 8.38 16.806-.237 3.881-2.006 9.247-9.083 12.774z" data-original="#000000" class="active-path" style="fill:#000000" data-old_color="#000000"/><path d="m153.963 238.127c-2.764 3.083-2.506 7.825.577 10.59l66.161 59.341c2.841 2.563 6.054 3.893 9.163 3.893 1.636 0 3.243-.368 4.752-1.118 4.345-2.158 6.644-6.893 6.15-12.669l-7.599-88.554c-.354-4.126-3.977-7.181-8.112-6.831-4.126.354-7.183 3.987-6.829 8.114l6.954 81.034-60.627-54.378c-3.084-2.764-7.825-2.506-10.59.578z" data-original="#000000" class="active-path" style="fill:#000000" data-old_color="#000000"/></g></g></g> </svg>
