<?xml version="1.0" encoding="UTF-8" standalone="no"?>
<svg
   xmlns:dc="http://purl.org/dc/elements/1.1/"
   xmlns:cc="http://creativecommons.org/ns#"
   xmlns:rdf="http://www.w3.org/1999/02/22-rdf-syntax-ns#"
   xmlns:svg="http://www.w3.org/2000/svg"
   xmlns="http://www.w3.org/2000/svg"
   xmlns:sodipodi="http://sodipodi.sourceforge.net/DTD/sodipodi-0.dtd"
   xmlns:inkscape="http://www.inkscape.org/namespaces/inkscape"
   version="1.1"
   id="Capa_1"
   x="0px"
   y="0px"
   width="512px"
   height="512px"
   viewBox="0 0 80 80"
   style="enable-background:new 0 0 80 80;"
   xml:space="preserve"
   sodipodi:docname="search-active.svg"
   inkscape:version="0.92.4 (5da689c313, 2019-01-14)"><metadata
   id="metadata17"><rdf:RDF><cc:Work
       rdf:about=""><dc:format>image/svg+xml</dc:format><dc:type
         rdf:resource="http://purl.org/dc/dcmitype/StillImage" /></cc:Work></rdf:RDF></metadata><defs
   id="defs15" /><sodipodi:namedview
   pagecolor="#ffffff"
   bordercolor="#666666"
   borderopacity="1"
   objecttolerance="10"
   gridtolerance="10"
   guidetolerance="10"
   inkscape:pageopacity="0"
   inkscape:pageshadow="2"
   inkscape:window-width="1920"
   inkscape:window-height="1017"
   id="namedview13"
   showgrid="false"
   inkscape:zoom="0.4609375"
   inkscape:cx="256"
   inkscape:cy="256"
   inkscape:window-x="-8"
   inkscape:window-y="-8"
   inkscape:window-maximized="1"
   inkscape:current-layer="Capa_1" /><g
   id="g10"><g
     id="g8">
	<g
   id="g6">
		<path
   d="M40,0C17.908,0,0,17.909,0,40c0,22.092,17.908,40,40,40c22.092,0,40-17.908,40-40C80,17.909,62.092,0,40,0z     M57.501,63.879c-0.5,0.318-1.06,0.471-1.61,0.471c-0.99,0-1.959-0.49-2.531-1.387l-8.078-12.664    c-0.596-0.936-0.598-2.066-0.125-2.984l-3.547-5.562c-2.217,1.227-4.763,1.928-7.471,1.928c-8.547,0-15.5-6.953-15.5-15.5    c0-8.547,6.953-15.5,15.5-15.5s15.5,6.953,15.5,15.5c0,4.763-2.164,9.026-5.555,11.873l3.602,5.647    c1.032-0.042,2.06,0.438,2.654,1.372l8.077,12.664C59.309,61.135,58.898,62.988,57.501,63.879z"
   data-original="#000000"
   class="active-path"
   data-old_color="#000000"
   fill="#7575C9"
   id="path2" />
		<path
   d="M34.138,18.68c-5.238,0-9.5,4.262-9.5,9.5c0,5.238,4.262,9.5,9.5,9.5c5.238,0,9.5-4.262,9.5-9.5    C43.639,22.942,39.376,18.68,34.138,18.68z"
   data-original="#000000"
   class="active-path"
   data-old_color="#000000"
   fill="#7575C9"
   id="path4" />
	</g>
</g></g> <path
   style="opacity:0.85;fill:#6495ed;fill-opacity:1;stroke:none;stroke-width:2.18132854;stroke-miterlimit:4;stroke-dasharray:0, 23.99461313;stroke-dashoffset:0"
   d="M 216.51525,507.96483 C 109.80998,490.39425 26.49037,409.87448 5.8836664,304.41121 0.81356518,278.46289 0.38913432,237.34398 4.9244705,211.48418 19.510344,128.31778 77.32516,55.438188 155.54024,21.622548 211.01925,-2.3633429 279.28522,-5.188506 336.35851,14.139449 450.39655,52.758615 522.63812,164.96245 509.46721,283.0077 c -6.68432,59.90879 -31.20152,110.31035 -74.62322,153.40758 -37.71312,37.43135 -75.98649,58.27643 -127.56235,69.47513 -22.10693,4.80011 -67.86285,5.84582 -90.76639,2.07442 z m 148.50524,-97.53031 c 4.04189,-1.68882 8.40376,-5.0416 9.69302,-7.4506 5.42866,-10.14355 2.79038,-16.36825 -26.44497,-62.39345 -24.95323,-39.28392 -29.75004,-45.63515 -36.00141,-47.66787 -5.5913,-1.81808 -9.62593,-6.12862 -17.95102,-19.17859 l -10.73873,-16.83341 8.65089,-9.38511 C 302.80914,236.0466 312.77288,216.71693 316.04011,201.3305 327.89823,145.4868 289.20598,89.717669 233.09032,81.770713 162.01133,71.704684 104.12855,136.79406 122.25519,206.40521 c 14.85948,57.06439 81.28058,89.59804 134.87683,66.06386 l 9.15911,-4.02179 10.28261,16.49777 c 7.78084,12.48386 10.30296,18.64967 10.36629,25.34246 0.0714,7.55437 4.19551,15.30127 28.26854,53.10189 21.59954,33.91666 29.70984,44.92173 34.71186,47.1015 8.11677,3.53712 6.48498,3.54322 15.10006,-0.0564 z"
   id="path824"
   inkscape:connector-curvature="0"
   transform="scale(0.15625)" /><path
   style="opacity:0.85;fill:#6495ed;fill-opacity:1;stroke:none;stroke-width:2.18132854;stroke-miterlimit:4;stroke-dasharray:0, 23.99461313;stroke-dashoffset:0"
   d="m 197.82585,236.43734 c -12.54025,-4.44742 -26.0397,-16.72518 -32.78685,-29.81963 -8.12539,-15.76925 -8.12539,-36.89668 0,-52.66593 28.97367,-56.230325 112.4932,-36.44189 112.4932,26.65322 0,41.418 -40.45233,69.75386 -79.70635,55.83234 z"
   id="path826"
   inkscape:connector-curvature="0"
   transform="scale(0.15625)" /></svg>