<?xml version="1.0" encoding="UTF-8" standalone="no"?>
<svg
   xmlns:dc="http://purl.org/dc/elements/1.1/"
   xmlns:cc="http://creativecommons.org/ns#"
   xmlns:rdf="http://www.w3.org/1999/02/22-rdf-syntax-ns#"
   xmlns:svg="http://www.w3.org/2000/svg"
   xmlns="http://www.w3.org/2000/svg"
   xmlns:sodipodi="http://sodipodi.sourceforge.net/DTD/sodipodi-0.dtd"
   xmlns:inkscape="http://www.inkscape.org/namespaces/inkscape"
   version="1.1"
   id="Capa_1"
   x="0px"
   y="0px"
   width="512px"
   height="512px"
   viewBox="0 0 80 80"
   style="enable-background:new 0 0 80 80;"
   xml:space="preserve"
   sodipodi:docname="search.svg"
   inkscape:version="0.92.4 (5da689c313, 2019-01-14)"><metadata
   id="metadata17"><rdf:RDF><cc:Work
       rdf:about=""><dc:format>image/svg+xml</dc:format><dc:type
         rdf:resource="http://purl.org/dc/dcmitype/StillImage" /><dc:title /></cc:Work></rdf:RDF></metadata><defs
   id="defs15" /><sodipodi:namedview
   pagecolor="#ffffff"
   bordercolor="#666666"
   borderopacity="1"
   objecttolerance="10"
   gridtolerance="10"
   guidetolerance="10"
   inkscape:pageopacity="0"
   inkscape:pageshadow="2"
   inkscape:window-width="1920"
   inkscape:window-height="1017"
   id="namedview13"
   showgrid="false"
   inkscape:zoom="0.921875"
   inkscape:cx="18.248727"
   inkscape:cy="260.75637"
   inkscape:window-x="-8"
   inkscape:window-y="-8"
   inkscape:window-maximized="1"
   inkscape:current-layer="Capa_1" /> <ellipse
   style="opacity:0.85;fill:#7575c9;fill-opacity:1;stroke:none;stroke-width:0.16863796;stroke-miterlimit:4;stroke-dasharray:0, 1.85501762;stroke-dashoffset:0"
   id="path826"
   cx="40.318783"
   cy="39.601254"
   rx="40.149284"
   ry="40.127472" /><ellipse
   style="opacity:0.85;fill:#ffffff;fill-opacity:1;stroke:none;stroke-width:0.15346873;stroke-miterlimit:4;stroke-dasharray:0, 1.68815577999999999;stroke-dashoffset:0"
   id="path830"
   cx="40.508472"
   cy="39.99157"
   rx="35.59322"
   ry="35.432167" /><path
   style="opacity:0.85;fill:#7575c9;fill-opacity:1;stroke:none;stroke-width:0.34083259;stroke-miterlimit:4;stroke-dasharray:0, 3.7491583;stroke-dashoffset:0"
   d="M 55.099179,64.716924 C 54.673782,64.504514 52.3674,61.234641 49.905692,57.353855 46.021512,51.2306 45.493981,50.227774 45.612115,49.191838 45.723028,48.219241 45.431259,47.521672 43.958954,45.239413 l -1.787845,-2.771385 -1.965291,0.798755 c -7.376659,2.998099 -15.890964,-0.458608 -19.486839,-7.911422 -0.964572,-1.999173 -1.110317,-2.675853 -1.219172,-5.660445 -0.101406,-2.780361 0.0028,-3.750592 0.579594,-5.396364 1.965381,-5.607858 6.548256,-9.471574 12.380935,-10.43808 4.558423,-0.755355 9.644987,0.983877 13.065087,4.467305 5.729213,5.835294 5.923823,14.728625 0.459009,20.97573 l -1.500573,1.715379 1.836586,2.846938 c 1.466594,2.273406 2.038714,2.887364 2.839936,3.047609 0.868434,0.173686 1.60314,1.13928 5.463859,7.180903 4.729336,7.400925 5.133753,8.443397 3.867286,9.968788 -0.71633,0.86277 -2.345126,1.17669 -3.392347,0.6538 z M 38.968589,37.550386 c 6.874307,-3.483475 6.933736,-13.553284 0.100422,-17.015987 -6.470286,-3.278741 -13.924943,1.262354 -13.924943,8.482551 0,2.917017 1.008163,5.179622 3.17663,7.129261 0.936264,0.841781 2.385781,1.740558 3.259048,2.02078 2.239613,0.718666 5.249485,0.467491 7.388843,-0.616605 z"
   id="path824"
   inkscape:connector-curvature="0" /><path
   style="opacity:0.85;fill:#ffffff;fill-opacity:1;stroke:none;stroke-width:1.09066427;stroke-miterlimit:4;stroke-dasharray:0, 11.99730657;stroke-dashoffset:0"
   d="M 227.98633,480.09948 C 154.7007,470.1546 90.274849,424.32434 56.625628,358.19956 45.366437,336.0739 37.951007,312.82454 34.136809,287.69109 31.592087,270.9228 31.607591,240.61274 34.169491,223.79541 49.345435,124.17446 126.40434,46.931311 225.25521,32.252821 c 36.11429,-5.362656 70.94298,-2.323506 106.1021,9.258464 82.88196,27.302627 142.8459,100.527215 153.60604,187.575085 1.68476,13.6294 1.39857,43.63221 -0.5494,57.59863 -6.89651,49.44589 -29.02981,93.74596 -64.45428,129.00609 -35.91062,35.74401 -81.03714,57.97047 -131.0682,64.55589 -15.24485,2.00663 -45.57218,1.93318 -60.90514,-0.1475 z m 141.63169,-66.16925 c 5.66583,-2.6886 8.55974,-7.48983 8.49474,-14.09346 -0.0663,-6.73769 -5.16143,-17.21575 -19.45551,-40.01009 -27.26126,-43.47269 -39.61549,-60.20339 -44.45525,-60.20339 -3.22176,0 -9.25537,-6.89833 -18.99163,-21.71347 l -9.99225,-15.20468 7.51431,-8.93075 c 13.63157,-16.20111 19.75213,-27.33123 24.33768,-44.25749 3.38815,-12.50642 3.41726,-35.44384 0.0606,-47.75762 -7.90654,-29.00483 -27.124,-51.81189 -54.80801,-65.045458 -13.93698,-6.66219 -23.89978,-8.908634 -39.81638,-8.977939 -9.23718,-0.04022 -15.88889,0.520727 -20.86759,1.75979 -35.46928,8.827333 -61.51602,32.307227 -73.34178,66.114087 -3.87688,11.08303 -3.89349,11.2088 -3.76228,28.48811 0.0725,9.54576 0.65361,20.17563 1.29138,23.62193 4.09897,22.14921 23.90263,49.14505 45.43993,61.9425 12.07537,7.17518 27.51711,12.32039 41.74869,13.91073 14.60424,1.63199 28.20191,-0.39548 44.93007,-6.69924 6.37687,-2.40303 11.70232,-4.36914 11.83432,-4.36914 0.50609,0 16.53204,25.72387 18.80127,30.17866 1.31317,2.57792 2.78188,8.2031 3.26382,12.50041 1.02093,9.10367 2.25545,11.72888 16.14757,34.33788 18.9823,30.89308 38.51019,59.49881 43.87516,64.27119 2.77308,2.46677 12.68074,2.54349 17.7511,0.13744 z"
   id="path846"
   inkscape:connector-curvature="0"
   transform="scale(0.15625)" /><path
   style="opacity:0.85;fill:#ffffff;fill-opacity:1;stroke:none;stroke-width:1.09066427;stroke-miterlimit:4;stroke-dasharray:0, 11.99730657;stroke-dashoffset:0"
   d="m 210.03178,245.75201 c -12.11613,-2.60854 -23.97499,-9.65401 -33.41879,-19.85444 -10.29219,-11.11679 -14.81791,-23.21633 -14.83952,-39.67349 -0.0239,-18.23455 4.89575,-30.40616 17.31596,-42.84067 9.15708,-9.16763 17.74061,-14.23747 28.33144,-16.73391 20.69887,-4.87907 41.86807,1.14708 56.86675,16.18803 8.87476,8.89978 12.76266,15.63365 15.73396,27.25133 5.54409,21.67712 -0.16288,42.8685 -15.75251,58.49298 -8.90234,8.92224 -17.67299,13.64303 -30.05596,16.17757 -7.80864,1.59828 -19.19682,2.06574 -24.18133,0.9926 z"
   id="path848"
   inkscape:connector-curvature="0"
   transform="scale(0.15625)" /><path
   style="opacity:0.85;fill:#6495ed;fill-opacity:1;stroke:none;stroke-width:1.09066427;stroke-miterlimit:4;stroke-dasharray:0, 11.99730657;stroke-dashoffset:0"
   d="M 240.94703,509.41237 C 179.90254,504.6763 124.14247,479.89029 79.973397,437.85769 46.881733,406.36668 21.308244,362.70239 9.8121107,318.06397 2.8723759,291.11763 0.13825444,256.53402 2.7799403,229.11482 16.797408,83.621415 149.19891,-20.619495 294.20615,-0.32770006 357.66536,8.5525558 417.65105,42.66093 457.64081,92.602642 c 30.50634,38.098228 48.40906,80.309618 55.13727,130.003698 1.79133,13.23064 1.79853,48.51946 0.0126,61.83051 -6.56176,48.90724 -25.47363,93.24386 -55.75543,130.71186 -8.46608,10.47519 -27.76516,29.69602 -38.18993,38.0351 -30.62629,24.49884 -69.53262,43.04362 -106.84746,50.92906 -19.93927,4.2136 -53.13435,6.68953 -71.05085,5.2995 z m 45.53217,-28.11188 c 101.91781,-11.92196 182.82591,-90.55935 198.64201,-193.06703 2.51842,-16.32246 2.50563,-48.9172 -0.0255,-65.04776 C 474.30546,154.42154 435.56924,96.794098 376.07719,61.000061 305.51162,18.543533 214.92295,18.268426 143.51575,60.293801 71.497248,102.67895 27.795485,182.24708 31.430085,264.36905 c 1.503297,33.96626 8.458693,61.57155 22.958144,91.11865 32.326441,65.87508 94.084091,111.94494 166.491011,124.19865 6.86101,1.16111 14.67118,2.2841 17.35593,2.49553 12.89163,1.01525 35.57256,0.60087 48.24403,-0.88139 z"
   id="path819"
   inkscape:connector-curvature="0"
   transform="scale(0.15625)" /><path
   style="opacity:0.85;fill:#6495ed;fill-opacity:1;stroke:none;stroke-width:1.09066427;stroke-miterlimit:4;stroke-dasharray:0, 11.99730657;stroke-dashoffset:0"
   d="m 355.68136,414.97405 c -1.33,-0.28199 -4.17714,-2.55466 -6.32694,-5.05038 -9.11963,-10.58702 -46.61002,-68.73741 -53.25374,-82.60055 -2.60614,-5.4381 -3.63494,-9.10733 -3.65204,-13.02516 -0.0131,-2.99988 -0.95298,-7.50089 -2.08859,-10.00224 -1.56469,-3.44643 -18.43945,-30.85435 -20.10102,-32.648 -0.16027,-0.17301 -4.13628,1.23588 -8.8356,3.13088 -12.71877,5.12884 -22.53995,7.49758 -34.03572,8.20898 -39.35372,2.43533 -77.07004,-20.76705 -94.86033,-58.35634 -5.8736,-12.4104 -7.08687,-19.31242 -7.09758,-40.3768 -0.009,-18.53605 1.22257,-24.73515 7.65048,-38.49531 5.60979,-12.00884 11.92966,-20.65569 22.41838,-30.67284 24.57772,-23.472736 60.0352,-32.4534 91.7362,-23.234935 34.10921,9.918765 60.27106,36.595515 69.18979,70.551595 3.23885,12.33116 3.26367,32.22165 0.0567,45.42589 -4.10265,16.89204 -11.61235,30.80401 -24.78679,45.91838 -3.74842,4.30037 -6.79345,8.44952 -6.76675,9.22034 0.0267,0.77082 5.0301,8.72353 11.11865,17.67268 10.38148,15.25905 11.44989,16.4554 17.17588,19.23258 4.80363,2.3298 7.38618,4.64324 12.10931,10.84745 11.46196,15.05618 43.67673,66.3666 49.07525,78.16513 5.06572,11.07119 3.55676,19.05156 -4.49402,23.76734 -3.41854,2.00243 -10.37997,3.13792 -14.23149,2.32131 z M 241.1707,243.78231 c 15.61788,-4.95655 28.03,-15.72617 35.03209,-30.39631 4.92855,-10.32583 6.50695,-17.25644 6.50695,-28.57125 0,-28.89146 -19.89421,-53.26178 -48.41122,-59.30353 -10.12471,-2.14508 -16.95287,-2.0114 -26.87446,0.52611 -21.90445,5.60222 -38.40729,21.44598 -44.6576,42.8741 -2.30734,7.91033 -2.56608,23.59245 -0.52797,32 4.13326,17.05036 17.82045,33.27814 35.20692,41.74197 11.30643,5.50403 28.53763,5.94892 43.72529,1.12891 z"
   id="path821"
   inkscape:connector-curvature="0"
   transform="scale(0.15625)" /></svg>