<?xml version="1.0" encoding="UTF-8" standalone="no"?>
<svg
   xmlns:dc="http://purl.org/dc/elements/1.1/"
   xmlns:cc="http://creativecommons.org/ns#"
   xmlns:rdf="http://www.w3.org/1999/02/22-rdf-syntax-ns#"
   xmlns:svg="http://www.w3.org/2000/svg"
   xmlns="http://www.w3.org/2000/svg"
   xmlns:sodipodi="http://sodipodi.sourceforge.net/DTD/sodipodi-0.dtd"
   xmlns:inkscape="http://www.inkscape.org/namespaces/inkscape"
   height="512px"
   viewBox="0 0 512 512"
   width="512px"
   class=""
   version="1.1"
   id="svg6"
   sodipodi:docname="worth-it-active.svg"
   inkscape:version="0.92.4 (5da689c313, 2019-01-14)">
  <metadata
     id="metadata12">
    <rdf:RDF>
      <cc:Work
         rdf:about="">
        <dc:format>image/svg+xml</dc:format>
        <dc:type
           rdf:resource="http://purl.org/dc/dcmitype/StillImage" />
      </cc:Work>
    </rdf:RDF>
  </metadata>
  <defs
     id="defs10" />
  <sodipodi:namedview
     pagecolor="#ffffff"
     bordercolor="#666666"
     borderopacity="1"
     objecttolerance="10"
     gridtolerance="10"
     guidetolerance="10"
     inkscape:pageopacity="0"
     inkscape:pageshadow="2"
     inkscape:window-width="1920"
     inkscape:window-height="1017"
     id="namedview8"
     showgrid="false"
     inkscape:zoom="0.4609375"
     inkscape:cx="256"
     inkscape:cy="256"
     inkscape:window-x="-8"
     inkscape:window-y="-8"
     inkscape:window-maximized="1"
     inkscape:current-layer="svg6" />
  <g
     id="g4">
    <path
       d="m256 0c-141.164062 0-256 114.835938-256 256s114.835938 256 256 256 256-114.835938 256-256-114.835938-256-256-256zm0 405.332031c-11.777344 0-21.332031-9.554687-21.332031-21.332031s9.554687-21.332031 21.332031-21.332031 21.332031 9.554687 21.332031 21.332031-9.554687 21.332031-21.332031 21.332031zm33.769531-135.636719c-7.550781 3.476563-12.4375 11.09375-12.4375 19.394532v9.578125c0 11.773437-9.535156 21.332031-21.332031 21.332031s-21.332031-9.558594-21.332031-21.332031v-9.578125c0-24.898438 14.632812-47.722656 37.226562-58.15625 21.738281-10.003906 37.4375-36.566406 37.4375-49.601563 0-29.394531-23.914062-53.332031-53.332031-53.332031s-53.332031 23.9375-53.332031 53.332031c0 11.777344-9.539063 21.335938-21.335938 21.335938s-21.332031-9.558594-21.332031-21.335938c0-52.925781 43.070312-96 96-96s96 43.074219 96 96c0 28.824219-25.003906 71.191407-62.230469 88.363281zm0 0"
       data-original="#000000"
       class="active-path"
       data-old_color="#000000"
       fill="#7575C9"
       id="path2" />
  </g>
  <path
     style="opacity:0.85;fill:#6495ed;fill-opacity:1;stroke:none;stroke-width:2.18132854;stroke-miterlimit:4;stroke-dasharray:0, 23.99461313;stroke-dashoffset:0"
     d="M 216.51525,507.96483 C 130.27165,493.76356 53.903284,434.08831 21.083635,355.25198 4.3371199,315.02503 -2.4372744,261.21951 3.7831001,217.84272 6.7869581,196.8958 18.012486,161.64922 27.954916,141.9466 54.084367,90.166663 100.61267,46.031631 153.82698,22.54902 210.40602,-2.4183963 278.28775,-5.5010028 336.70235,14.244388 c 112.60399,38.062567 185.1379,149.909302 172.916,266.635172 -6.30658,60.23124 -30.87206,111.74959 -73.71368,154.59121 -36.92995,36.92998 -78.02713,59.43496 -128.57882,70.41035 -22.14671,4.80831 -67.88998,5.85793 -90.8106,2.08371 z m 46.2945,-103.00481 c 9.07216,-3.44923 14.45127,-10.97188 14.45127,-20.21003 0,-10.7899 -2.83008,-15.91252 -11.17534,-20.22801 -9.20845,-4.76188 -19.67086,-2.47259 -26.65999,5.8335 -9.46939,11.25374 -6.09959,26.02399 7.49262,32.84116 8.81289,4.42008 8.88327,4.42789 15.89144,1.76338 z m 7.08181,-89.80896 c 4.84916,-4.17107 6.20377,-7.67679 7.66891,-19.84695 2.02025,-16.78097 4.29985,-20.07999 20.07253,-29.04864 25.81738,-14.6803 51.2156,-50.45031 54.50277,-76.75992 4.54788,-36.40007 -18.75146,-77.76407 -53.17984,-94.411715 C 261.14679,76.801447 221.20485,82.764646 190.3918,111.2921 c -18.25316,16.89921 -28.47733,37.92747 -29.83381,61.3598 -0.97435,16.83134 -0.859,17.31984 5.61945,23.79829 14.10491,14.10491 37.32087,3.93518 37.32087,-16.34838 0,-17.23495 14.72247,-39.16114 31.37364,-46.72479 17.19784,-7.81197 43.06764,-3.47088 57.32027,9.61865 7.72536,7.09494 15.39618,25.03363 15.42048,36.06174 0.0386,17.56686 -15.86759,40.43807 -34.86331,50.12898 -22.67772,11.56931 -36.62896,32.20562 -38.40167,56.8028 -1.67737,23.27391 5.22888,34.22776 21.58012,34.22776 5.33268,0 10.07401,-1.7201 13.96372,-5.06589 z"
     id="path822"
     inkscape:connector-curvature="0" />
</svg>
