<?xml version="1.0" encoding="UTF-8" standalone="no"?>
<svg
   xmlns:dc="http://purl.org/dc/elements/1.1/"
   xmlns:cc="http://creativecommons.org/ns#"
   xmlns:rdf="http://www.w3.org/1999/02/22-rdf-syntax-ns#"
   xmlns:svg="http://www.w3.org/2000/svg"
   xmlns="http://www.w3.org/2000/svg"
   xmlns:sodipodi="http://sodipodi.sourceforge.net/DTD/sodipodi-0.dtd"
   xmlns:inkscape="http://www.inkscape.org/namespaces/inkscape"
   height="512px"
   viewBox="0 0 512 512"
   width="512px"
   version="1.1"
   id="svg10"
   sodipodi:docname="worth-it.svg"
   inkscape:version="0.92.4 (5da689c313, 2019-01-14)">
  <metadata
     id="metadata16">
    <rdf:RDF>
      <cc:Work
         rdf:about="">
        <dc:format>image/svg+xml</dc:format>
        <dc:type
           rdf:resource="http://purl.org/dc/dcmitype/StillImage" />
      </cc:Work>
    </rdf:RDF>
  </metadata>
  <defs
     id="defs14" />
  <sodipodi:namedview
     pagecolor="#ffffff"
     bordercolor="#666666"
     borderopacity="1"
     objecttolerance="10"
     gridtolerance="10"
     guidetolerance="10"
     inkscape:pageopacity="0"
     inkscape:pageshadow="2"
     inkscape:window-width="1920"
     inkscape:window-height="1017"
     id="namedview12"
     showgrid="false"
     inkscape:zoom="0.4609375"
     inkscape:cx="256"
     inkscape:cy="256"
     inkscape:window-x="-8"
     inkscape:window-y="-8"
     inkscape:window-maximized="1"
     inkscape:current-layer="svg10" />
  <g
     id="g8">
    <path
       d="m277.332031 384c0 11.78125-9.550781 21.332031-21.332031 21.332031s-21.332031-9.550781-21.332031-21.332031 9.550781-21.332031 21.332031-21.332031 21.332031 9.550781 21.332031 21.332031zm0 0"
       data-original="#000000"
       class="active-path"
       data-old_color="#000000"
       fill="#7575C9"
       id="path2" />
    <path
       d="m256 512c-141.164062 0-256-114.835938-256-256s114.835938-256 256-256 256 114.835938 256 256-114.835938 256-256 256zm0-480c-123.519531 0-224 100.480469-224 224s100.480469 224 224 224 224-100.480469 224-224-100.480469-224-224-224zm0 0"
       data-original="#000000"
       class="active-path"
       data-old_color="#000000"
       fill="#7575C9"
       id="path4" />
    <path
       d="m256 314.667969c-8.832031 0-16-7.167969-16-16v-21.546875c0-20.308594 12.886719-38.507813 32.042969-45.269532 25.492187-8.980468 42.625-36.140624 42.625-55.851562 0-32.363281-26.304688-58.667969-58.667969-58.667969s-58.667969 26.304688-58.667969 58.667969c0 8.832031-7.167969 16-16 16s-16-7.167969-16-16c0-49.984375 40.664063-90.667969 90.667969-90.667969s90.667969 40.683594 90.667969 90.667969c0 35.585938-28.097657 73.367188-63.980469 86.039062-6.398438 2.238282-10.6875 8.316407-10.6875 15.101563v21.527344c0 8.832031-7.167969 16-16 16zm0 0"
       data-original="#000000"
       class="active-path"
       data-old_color="#000000"
       fill="#7575C9"
       id="path6" />
  </g>
  <path
     style="opacity:0.85;fill:#6495ed;fill-opacity:1;stroke:none;stroke-width:2.18132854;stroke-miterlimit:4;stroke-dasharray:0, 23.99461313;stroke-dashoffset:0"
     d="M 216.51525,507.96483 C 137.90755,495.02093 69.643429,446.53542 31.195186,376.33877 5.7172189,329.8225 -4.5093865,265.47803 4.9521981,211.22129 19.219905,129.4042 76.669145,56.597521 153.82698,22.54902 210.40602,-2.4183963 278.28775,-5.5010028 336.70235,14.244388 463.18147,56.997044 536.0043,190.34554 503.00318,318.76376 c -11.53666,44.89287 -31.65349,80.2017 -65.19979,114.4379 -38.25985,39.04666 -78.30292,61.35172 -130.47754,72.67946 -22.14671,4.80831 -67.88998,5.85793 -90.8106,2.08371 z m 92.20339,-33.41796 C 438.69321,442.22516 512.14894,305.8921 467.25944,180.29683 440.25385,104.73849 375.45802,49.895066 295.32507,34.770977 267.81138,29.57811 224.94104,31.503826 197.10352,39.183048 128.49178,58.110184 70.769111,110.59732 46.083176,176.50563 c -10.314993,27.53972 -13.979077,48.31574 -13.946201,79.07748 0.06901,64.56407 23.472141,119.47075 69.683365,163.48585 31.89113,30.37555 77.33647,52.86678 120.11864,59.44756 20.36485,3.13255 66.75283,1.01057 86.77966,-3.96965 z"
     id="path823"
     inkscape:connector-curvature="0" />
  <path
     style="opacity:0.85;fill:#6495ed;fill-opacity:1;stroke:none;stroke-width:2.18132854;stroke-miterlimit:4;stroke-dasharray:0, 23.99461313;stroke-dashoffset:0"
     d="m 245.70478,308.38335 c -4.57848,-4.57847 -5.32512,-7.33353 -5.32512,-19.64947 0,-30.84107 7.68215,-43.34432 35.79247,-58.25484 19.98088,-10.59842 30.98998,-23.07519 36.87781,-41.7941 7.64102,-24.2928 -5.33344,-52.47257 -30.10542,-65.38721 -21.66093,-11.29273 -51.15067,-6.77137 -68.41077,10.48873 -8.9907,8.9907 -17.49411,26.62371 -17.52273,36.33583 -0.022,7.47505 -3.2778,15.51449 -7.39682,18.26483 -4.52279,3.01995 -15.79902,1.67942 -19.40677,-2.3071 -4.97279,-5.49487 -4.59588,-21.38835 0.89366,-37.68381 21.39383,-63.506596 100.85462,-82.769479 147.79551,-35.82858 27.02337,27.02337 33.69523,66.555 16.96739,100.53406 -8.05188,16.3557 -29.25093,36.94985 -46.37321,45.04999 -16.24318,7.68425 -18.73824,11.82403 -18.73824,31.09037 0,12.89581 -0.79496,16.58343 -4.33898,20.12744 -5.86356,5.86355 -14.25887,5.46378 -20.70878,-0.98614 z"
     id="path825"
     inkscape:connector-curvature="0" />
  <path
     style="opacity:0.85;fill:#6495ed;fill-opacity:1;stroke:none;stroke-width:2.18132854;stroke-miterlimit:4;stroke-dasharray:0, 23.99461313;stroke-dashoffset:0"
     d="m 247.66264,402.67589 c -12.69274,-5.12215 -15.49812,-22.50977 -5.28037,-32.72752 10.21824,-10.21824 25.29279,-7.44606 31.5822,5.80789 4.35137,9.16981 2.51774,16.66751 -5.78467,23.65353 -6.64413,5.59066 -12.46192,6.51679 -20.51716,3.2661 z"
     id="path827"
     inkscape:connector-curvature="0" />
</svg>
